<mxfile host="app.diagrams.net" modified="2023-09-28T22:40:23.558Z" agent="Mozilla/5.0 (Windows NT 10.0; Win64; x64) AppleWebKit/537.36 (KHTML, like Gecko) Chrome/117.0.0.0 Safari/537.36 Edg/117.0.2045.41" etag="Hf_NOulKQLeiXzznSEnh" version="21.8.2" type="device">
  <diagram name="PÃ¡gina-1" id="OtQOu8LOPl39Hug3FkRX">
    <mxGraphModel dx="727" dy="373" grid="1" gridSize="10" guides="1" tooltips="1" connect="1" arrows="1" fold="1" page="1" pageScale="1" pageWidth="827" pageHeight="1169" math="0" shadow="0">
      <root>
        <mxCell id="0" />
        <mxCell id="1" parent="0" />
        <mxCell id="-IUhRAs3wrBaZXGBPhYS-1" style="edgeStyle=orthogonalEdgeStyle;rounded=0;orthogonalLoop=1;jettySize=auto;html=1;entryX=0;entryY=0.5;entryDx=0;entryDy=0;" parent="1" source="-IUhRAs3wrBaZXGBPhYS-2" target="-IUhRAs3wrBaZXGBPhYS-5" edge="1">
          <mxGeometry relative="1" as="geometry" />
        </mxCell>
        <mxCell id="-IUhRAs3wrBaZXGBPhYS-2" value="0" style="ellipse;whiteSpace=wrap;html=1;aspect=fixed;" parent="1" vertex="1">
          <mxGeometry x="310" y="220" width="80" height="80" as="geometry" />
        </mxCell>
        <mxCell id="-IUhRAs3wrBaZXGBPhYS-3" value="p" style="text;html=1;strokeColor=none;fillColor=none;align=center;verticalAlign=middle;whiteSpace=wrap;rounded=0;" parent="1" vertex="1">
          <mxGeometry x="400" y="220" width="40" height="20" as="geometry" />
        </mxCell>
        <mxCell id="-IUhRAs3wrBaZXGBPhYS-4" style="edgeStyle=orthogonalEdgeStyle;rounded=0;orthogonalLoop=1;jettySize=auto;html=1;entryX=0;entryY=0.5;entryDx=0;entryDy=0;" parent="1" source="-IUhRAs3wrBaZXGBPhYS-5" target="-IUhRAs3wrBaZXGBPhYS-8" edge="1">
          <mxGeometry relative="1" as="geometry" />
        </mxCell>
        <mxCell id="-IUhRAs3wrBaZXGBPhYS-5" value="1" style="ellipse;whiteSpace=wrap;html=1;aspect=fixed;" parent="1" vertex="1">
          <mxGeometry x="460" y="220" width="80" height="80" as="geometry" />
        </mxCell>
        <mxCell id="-IUhRAs3wrBaZXGBPhYS-6" value="r" style="text;html=1;strokeColor=none;fillColor=none;align=center;verticalAlign=middle;whiteSpace=wrap;rounded=0;" parent="1" vertex="1">
          <mxGeometry x="550" y="220" width="40" height="20" as="geometry" />
        </mxCell>
        <mxCell id="-IUhRAs3wrBaZXGBPhYS-7" style="edgeStyle=orthogonalEdgeStyle;rounded=0;orthogonalLoop=1;jettySize=auto;html=1;entryX=0;entryY=0.5;entryDx=0;entryDy=0;" parent="1" source="-IUhRAs3wrBaZXGBPhYS-8" target="-IUhRAs3wrBaZXGBPhYS-11" edge="1">
          <mxGeometry relative="1" as="geometry" />
        </mxCell>
        <mxCell id="-IUhRAs3wrBaZXGBPhYS-8" value="2" style="ellipse;whiteSpace=wrap;html=1;aspect=fixed;" parent="1" vertex="1">
          <mxGeometry x="610" y="220" width="80" height="80" as="geometry" />
        </mxCell>
        <mxCell id="-IUhRAs3wrBaZXGBPhYS-9" value="o" style="text;html=1;strokeColor=none;fillColor=none;align=center;verticalAlign=middle;whiteSpace=wrap;rounded=0;" parent="1" vertex="1">
          <mxGeometry x="700" y="220" width="40" height="20" as="geometry" />
        </mxCell>
        <mxCell id="-IUhRAs3wrBaZXGBPhYS-10" style="edgeStyle=orthogonalEdgeStyle;rounded=0;orthogonalLoop=1;jettySize=auto;html=1;entryX=0;entryY=0.5;entryDx=0;entryDy=0;" parent="1" source="-IUhRAs3wrBaZXGBPhYS-11" target="-IUhRAs3wrBaZXGBPhYS-14" edge="1">
          <mxGeometry relative="1" as="geometry" />
        </mxCell>
        <mxCell id="-IUhRAs3wrBaZXGBPhYS-11" value="3" style="ellipse;whiteSpace=wrap;html=1;aspect=fixed;" parent="1" vertex="1">
          <mxGeometry x="760" y="220" width="80" height="80" as="geometry" />
        </mxCell>
        <mxCell id="-IUhRAs3wrBaZXGBPhYS-12" value="g" style="text;html=1;strokeColor=none;fillColor=none;align=center;verticalAlign=middle;whiteSpace=wrap;rounded=0;" parent="1" vertex="1">
          <mxGeometry x="850" y="220" width="40" height="20" as="geometry" />
        </mxCell>
        <mxCell id="-IUhRAs3wrBaZXGBPhYS-13" style="edgeStyle=orthogonalEdgeStyle;rounded=0;orthogonalLoop=1;jettySize=auto;html=1;entryX=0;entryY=0.5;entryDx=0;entryDy=0;" parent="1" source="-IUhRAs3wrBaZXGBPhYS-14" target="-IUhRAs3wrBaZXGBPhYS-17" edge="1">
          <mxGeometry relative="1" as="geometry" />
        </mxCell>
        <mxCell id="-IUhRAs3wrBaZXGBPhYS-14" value="4" style="ellipse;whiteSpace=wrap;html=1;aspect=fixed;" parent="1" vertex="1">
          <mxGeometry x="910" y="220" width="80" height="80" as="geometry" />
        </mxCell>
        <mxCell id="-IUhRAs3wrBaZXGBPhYS-15" value="r" style="text;html=1;strokeColor=none;fillColor=none;align=center;verticalAlign=middle;whiteSpace=wrap;rounded=0;" parent="1" vertex="1">
          <mxGeometry x="1000" y="220" width="40" height="20" as="geometry" />
        </mxCell>
        <mxCell id="-IUhRAs3wrBaZXGBPhYS-16" style="edgeStyle=orthogonalEdgeStyle;rounded=0;orthogonalLoop=1;jettySize=auto;html=1;entryX=0;entryY=0.5;entryDx=0;entryDy=0;" parent="1" source="-IUhRAs3wrBaZXGBPhYS-17" target="-IUhRAs3wrBaZXGBPhYS-20" edge="1">
          <mxGeometry relative="1" as="geometry" />
        </mxCell>
        <mxCell id="-IUhRAs3wrBaZXGBPhYS-17" value="5" style="ellipse;whiteSpace=wrap;html=1;aspect=fixed;" parent="1" vertex="1">
          <mxGeometry x="1060" y="220" width="80" height="80" as="geometry" />
        </mxCell>
        <mxCell id="-IUhRAs3wrBaZXGBPhYS-18" value="a" style="text;html=1;strokeColor=none;fillColor=none;align=center;verticalAlign=middle;whiteSpace=wrap;rounded=0;" parent="1" vertex="1">
          <mxGeometry x="1150" y="220" width="40" height="20" as="geometry" />
        </mxCell>
        <mxCell id="-IUhRAs3wrBaZXGBPhYS-19" style="edgeStyle=orthogonalEdgeStyle;rounded=0;orthogonalLoop=1;jettySize=auto;html=1;entryX=0;entryY=0.5;entryDx=0;entryDy=0;" parent="1" source="-IUhRAs3wrBaZXGBPhYS-20" target="-IUhRAs3wrBaZXGBPhYS-23" edge="1">
          <mxGeometry relative="1" as="geometry" />
        </mxCell>
        <mxCell id="-IUhRAs3wrBaZXGBPhYS-20" value="6" style="ellipse;whiteSpace=wrap;html=1;aspect=fixed;" parent="1" vertex="1">
          <mxGeometry x="1210" y="220" width="80" height="80" as="geometry" />
        </mxCell>
        <mxCell id="-IUhRAs3wrBaZXGBPhYS-21" value="m" style="text;html=1;strokeColor=none;fillColor=none;align=center;verticalAlign=middle;whiteSpace=wrap;rounded=0;" parent="1" vertex="1">
          <mxGeometry x="1300" y="220" width="40" height="20" as="geometry" />
        </mxCell>
        <mxCell id="-IUhRAs3wrBaZXGBPhYS-23" value="7" style="ellipse;shape=doubleEllipse;whiteSpace=wrap;html=1;aspect=fixed;" parent="1" vertex="1">
          <mxGeometry x="1360" y="220" width="80" height="80" as="geometry" />
        </mxCell>
        <mxCell id="-IUhRAs3wrBaZXGBPhYS-24" value="RETURN(program, NULL)" style="text;html=1;strokeColor=none;fillColor=none;align=center;verticalAlign=middle;whiteSpace=wrap;rounded=0;" parent="1" vertex="1">
          <mxGeometry x="1480" y="250" width="40" height="20" as="geometry" />
        </mxCell>
        <mxCell id="-IUhRAs3wrBaZXGBPhYS-25" style="edgeStyle=orthogonalEdgeStyle;rounded=0;orthogonalLoop=1;jettySize=auto;html=1;entryX=0;entryY=0.5;entryDx=0;entryDy=0;" parent="1" source="-IUhRAs3wrBaZXGBPhYS-26" target="-IUhRAs3wrBaZXGBPhYS-29" edge="1">
          <mxGeometry relative="1" as="geometry" />
        </mxCell>
        <mxCell id="-IUhRAs3wrBaZXGBPhYS-26" value="0" style="ellipse;whiteSpace=wrap;html=1;aspect=fixed;" parent="1" vertex="1">
          <mxGeometry x="310" y="320" width="80" height="80" as="geometry" />
        </mxCell>
        <mxCell id="-IUhRAs3wrBaZXGBPhYS-27" value="(" style="text;html=1;strokeColor=none;fillColor=none;align=center;verticalAlign=middle;whiteSpace=wrap;rounded=0;" parent="1" vertex="1">
          <mxGeometry x="400" y="320" width="40" height="20" as="geometry" />
        </mxCell>
        <mxCell id="-IUhRAs3wrBaZXGBPhYS-29" value="1" style="ellipse;shape=doubleEllipse;whiteSpace=wrap;html=1;aspect=fixed;" parent="1" vertex="1">
          <mxGeometry x="460" y="320" width="80" height="80" as="geometry" />
        </mxCell>
        <mxCell id="-IUhRAs3wrBaZXGBPhYS-30" value="RETURN((, NULL)" style="text;html=1;strokeColor=none;fillColor=none;align=center;verticalAlign=middle;whiteSpace=wrap;rounded=0;" parent="1" vertex="1">
          <mxGeometry x="580" y="350" width="40" height="20" as="geometry" />
        </mxCell>
        <mxCell id="-IUhRAs3wrBaZXGBPhYS-31" style="edgeStyle=orthogonalEdgeStyle;rounded=0;orthogonalLoop=1;jettySize=auto;html=1;entryX=0;entryY=0.5;entryDx=0;entryDy=0;" parent="1" source="-IUhRAs3wrBaZXGBPhYS-32" target="-IUhRAs3wrBaZXGBPhYS-35" edge="1">
          <mxGeometry relative="1" as="geometry" />
        </mxCell>
        <mxCell id="-IUhRAs3wrBaZXGBPhYS-32" value="0" style="ellipse;whiteSpace=wrap;html=1;aspect=fixed;" parent="1" vertex="1">
          <mxGeometry x="310" y="420" width="80" height="80" as="geometry" />
        </mxCell>
        <mxCell id="-IUhRAs3wrBaZXGBPhYS-33" value=")" style="text;html=1;strokeColor=none;fillColor=none;align=center;verticalAlign=middle;whiteSpace=wrap;rounded=0;" parent="1" vertex="1">
          <mxGeometry x="400" y="420" width="40" height="20" as="geometry" />
        </mxCell>
        <mxCell id="-IUhRAs3wrBaZXGBPhYS-35" value="1" style="ellipse;shape=doubleEllipse;whiteSpace=wrap;html=1;aspect=fixed;" parent="1" vertex="1">
          <mxGeometry x="460" y="420" width="80" height="80" as="geometry" />
        </mxCell>
        <mxCell id="-IUhRAs3wrBaZXGBPhYS-36" value="RETURN(), NULL)" style="text;html=1;strokeColor=none;fillColor=none;align=center;verticalAlign=middle;whiteSpace=wrap;rounded=0;" parent="1" vertex="1">
          <mxGeometry x="580" y="450" width="40" height="20" as="geometry" />
        </mxCell>
        <mxCell id="-IUhRAs3wrBaZXGBPhYS-37" style="edgeStyle=orthogonalEdgeStyle;rounded=0;orthogonalLoop=1;jettySize=auto;html=1;entryX=0;entryY=0.5;entryDx=0;entryDy=0;" parent="1" source="-IUhRAs3wrBaZXGBPhYS-38" target="-IUhRAs3wrBaZXGBPhYS-41" edge="1">
          <mxGeometry relative="1" as="geometry" />
        </mxCell>
        <mxCell id="-IUhRAs3wrBaZXGBPhYS-38" value="0" style="ellipse;whiteSpace=wrap;html=1;aspect=fixed;" parent="1" vertex="1">
          <mxGeometry x="310" y="520" width="80" height="80" as="geometry" />
        </mxCell>
        <mxCell id="-IUhRAs3wrBaZXGBPhYS-39" value="b" style="text;html=1;strokeColor=none;fillColor=none;align=center;verticalAlign=middle;whiteSpace=wrap;rounded=0;" parent="1" vertex="1">
          <mxGeometry x="400" y="520" width="40" height="20" as="geometry" />
        </mxCell>
        <mxCell id="-IUhRAs3wrBaZXGBPhYS-40" style="edgeStyle=orthogonalEdgeStyle;rounded=0;orthogonalLoop=1;jettySize=auto;html=1;entryX=0;entryY=0.5;entryDx=0;entryDy=0;" parent="1" source="-IUhRAs3wrBaZXGBPhYS-41" target="-IUhRAs3wrBaZXGBPhYS-44" edge="1">
          <mxGeometry relative="1" as="geometry" />
        </mxCell>
        <mxCell id="-IUhRAs3wrBaZXGBPhYS-41" value="1" style="ellipse;whiteSpace=wrap;html=1;aspect=fixed;" parent="1" vertex="1">
          <mxGeometry x="460" y="520" width="80" height="80" as="geometry" />
        </mxCell>
        <mxCell id="-IUhRAs3wrBaZXGBPhYS-42" value="e" style="text;html=1;strokeColor=none;fillColor=none;align=center;verticalAlign=middle;whiteSpace=wrap;rounded=0;" parent="1" vertex="1">
          <mxGeometry x="550" y="520" width="40" height="20" as="geometry" />
        </mxCell>
        <mxCell id="-IUhRAs3wrBaZXGBPhYS-43" style="edgeStyle=orthogonalEdgeStyle;rounded=0;orthogonalLoop=1;jettySize=auto;html=1;entryX=0;entryY=0.5;entryDx=0;entryDy=0;" parent="1" source="-IUhRAs3wrBaZXGBPhYS-44" target="-IUhRAs3wrBaZXGBPhYS-47" edge="1">
          <mxGeometry relative="1" as="geometry" />
        </mxCell>
        <mxCell id="-IUhRAs3wrBaZXGBPhYS-44" value="2" style="ellipse;whiteSpace=wrap;html=1;aspect=fixed;" parent="1" vertex="1">
          <mxGeometry x="610" y="520" width="80" height="80" as="geometry" />
        </mxCell>
        <mxCell id="-IUhRAs3wrBaZXGBPhYS-45" value="g" style="text;html=1;strokeColor=none;fillColor=none;align=center;verticalAlign=middle;whiteSpace=wrap;rounded=0;" parent="1" vertex="1">
          <mxGeometry x="700" y="520" width="40" height="20" as="geometry" />
        </mxCell>
        <mxCell id="-IUhRAs3wrBaZXGBPhYS-46" style="edgeStyle=orthogonalEdgeStyle;rounded=0;orthogonalLoop=1;jettySize=auto;html=1;entryX=0;entryY=0.5;entryDx=0;entryDy=0;" parent="1" source="-IUhRAs3wrBaZXGBPhYS-47" target="-IUhRAs3wrBaZXGBPhYS-50" edge="1">
          <mxGeometry relative="1" as="geometry" />
        </mxCell>
        <mxCell id="-IUhRAs3wrBaZXGBPhYS-47" value="3" style="ellipse;whiteSpace=wrap;html=1;aspect=fixed;" parent="1" vertex="1">
          <mxGeometry x="760" y="520" width="80" height="80" as="geometry" />
        </mxCell>
        <mxCell id="-IUhRAs3wrBaZXGBPhYS-48" value="i" style="text;html=1;strokeColor=none;fillColor=none;align=center;verticalAlign=middle;whiteSpace=wrap;rounded=0;" parent="1" vertex="1">
          <mxGeometry x="850" y="520" width="40" height="20" as="geometry" />
        </mxCell>
        <mxCell id="-IUhRAs3wrBaZXGBPhYS-49" style="edgeStyle=orthogonalEdgeStyle;rounded=0;orthogonalLoop=1;jettySize=auto;html=1;entryX=0;entryY=0.5;entryDx=0;entryDy=0;" parent="1" source="-IUhRAs3wrBaZXGBPhYS-50" target="-IUhRAs3wrBaZXGBPhYS-53" edge="1">
          <mxGeometry relative="1" as="geometry" />
        </mxCell>
        <mxCell id="-IUhRAs3wrBaZXGBPhYS-50" value="4" style="ellipse;whiteSpace=wrap;html=1;aspect=fixed;" parent="1" vertex="1">
          <mxGeometry x="910" y="520" width="80" height="80" as="geometry" />
        </mxCell>
        <mxCell id="-IUhRAs3wrBaZXGBPhYS-51" value="n" style="text;html=1;strokeColor=none;fillColor=none;align=center;verticalAlign=middle;whiteSpace=wrap;rounded=0;" parent="1" vertex="1">
          <mxGeometry x="1000" y="520" width="40" height="20" as="geometry" />
        </mxCell>
        <mxCell id="-IUhRAs3wrBaZXGBPhYS-53" value="5" style="ellipse;shape=doubleEllipse;whiteSpace=wrap;html=1;aspect=fixed;" parent="1" vertex="1">
          <mxGeometry x="1060" y="520" width="80" height="80" as="geometry" />
        </mxCell>
        <mxCell id="-IUhRAs3wrBaZXGBPhYS-54" value="RETURN(begin, NULL)" style="text;html=1;strokeColor=none;fillColor=none;align=center;verticalAlign=middle;whiteSpace=wrap;rounded=0;" parent="1" vertex="1">
          <mxGeometry x="1180" y="550" width="40" height="20" as="geometry" />
        </mxCell>
        <mxCell id="-IUhRAs3wrBaZXGBPhYS-55" style="edgeStyle=orthogonalEdgeStyle;rounded=0;orthogonalLoop=1;jettySize=auto;html=1;entryX=0;entryY=0.5;entryDx=0;entryDy=0;" parent="1" source="-IUhRAs3wrBaZXGBPhYS-56" target="-IUhRAs3wrBaZXGBPhYS-59" edge="1">
          <mxGeometry relative="1" as="geometry" />
        </mxCell>
        <mxCell id="-IUhRAs3wrBaZXGBPhYS-56" value="0" style="ellipse;whiteSpace=wrap;html=1;aspect=fixed;" parent="1" vertex="1">
          <mxGeometry x="310" y="620" width="80" height="80" as="geometry" />
        </mxCell>
        <mxCell id="-IUhRAs3wrBaZXGBPhYS-57" value="e" style="text;html=1;strokeColor=none;fillColor=none;align=center;verticalAlign=middle;whiteSpace=wrap;rounded=0;" parent="1" vertex="1">
          <mxGeometry x="400" y="620" width="40" height="20" as="geometry" />
        </mxCell>
        <mxCell id="-IUhRAs3wrBaZXGBPhYS-58" style="edgeStyle=orthogonalEdgeStyle;rounded=0;orthogonalLoop=1;jettySize=auto;html=1;entryX=0;entryY=0.5;entryDx=0;entryDy=0;" parent="1" source="-IUhRAs3wrBaZXGBPhYS-59" target="-IUhRAs3wrBaZXGBPhYS-62" edge="1">
          <mxGeometry relative="1" as="geometry" />
        </mxCell>
        <mxCell id="-IUhRAs3wrBaZXGBPhYS-59" value="1" style="ellipse;whiteSpace=wrap;html=1;aspect=fixed;" parent="1" vertex="1">
          <mxGeometry x="460" y="620" width="80" height="80" as="geometry" />
        </mxCell>
        <mxCell id="-IUhRAs3wrBaZXGBPhYS-60" value="n" style="text;html=1;strokeColor=none;fillColor=none;align=center;verticalAlign=middle;whiteSpace=wrap;rounded=0;" parent="1" vertex="1">
          <mxGeometry x="550" y="620" width="40" height="20" as="geometry" />
        </mxCell>
        <mxCell id="-IUhRAs3wrBaZXGBPhYS-61" style="edgeStyle=orthogonalEdgeStyle;rounded=0;orthogonalLoop=1;jettySize=auto;html=1;entryX=0;entryY=0.5;entryDx=0;entryDy=0;" parent="1" source="-IUhRAs3wrBaZXGBPhYS-62" target="-IUhRAs3wrBaZXGBPhYS-65" edge="1">
          <mxGeometry relative="1" as="geometry" />
        </mxCell>
        <mxCell id="-IUhRAs3wrBaZXGBPhYS-62" value="2" style="ellipse;whiteSpace=wrap;html=1;aspect=fixed;" parent="1" vertex="1">
          <mxGeometry x="610" y="620" width="80" height="80" as="geometry" />
        </mxCell>
        <mxCell id="-IUhRAs3wrBaZXGBPhYS-63" value="d" style="text;html=1;strokeColor=none;fillColor=none;align=center;verticalAlign=middle;whiteSpace=wrap;rounded=0;" parent="1" vertex="1">
          <mxGeometry x="700" y="620" width="40" height="20" as="geometry" />
        </mxCell>
        <mxCell id="-IUhRAs3wrBaZXGBPhYS-65" value="3" style="ellipse;shape=doubleEllipse;whiteSpace=wrap;html=1;aspect=fixed;" parent="1" vertex="1">
          <mxGeometry x="760" y="620" width="80" height="80" as="geometry" />
        </mxCell>
        <mxCell id="-IUhRAs3wrBaZXGBPhYS-66" value="RETURN(end, NULL)" style="text;html=1;strokeColor=none;fillColor=none;align=center;verticalAlign=middle;whiteSpace=wrap;rounded=0;" parent="1" vertex="1">
          <mxGeometry x="880" y="650" width="40" height="20" as="geometry" />
        </mxCell>
        <mxCell id="-IUhRAs3wrBaZXGBPhYS-67" style="edgeStyle=orthogonalEdgeStyle;rounded=0;orthogonalLoop=1;jettySize=auto;html=1;entryX=0;entryY=0.5;entryDx=0;entryDy=0;" parent="1" source="-IUhRAs3wrBaZXGBPhYS-68" target="-IUhRAs3wrBaZXGBPhYS-71" edge="1">
          <mxGeometry relative="1" as="geometry" />
        </mxCell>
        <mxCell id="-IUhRAs3wrBaZXGBPhYS-68" value="0" style="ellipse;whiteSpace=wrap;html=1;aspect=fixed;" parent="1" vertex="1">
          <mxGeometry x="310" y="720" width="80" height="80" as="geometry" />
        </mxCell>
        <mxCell id="-IUhRAs3wrBaZXGBPhYS-69" value="i" style="text;html=1;strokeColor=none;fillColor=none;align=center;verticalAlign=middle;whiteSpace=wrap;rounded=0;" parent="1" vertex="1">
          <mxGeometry x="400" y="720" width="40" height="20" as="geometry" />
        </mxCell>
        <mxCell id="-IUhRAs3wrBaZXGBPhYS-70" style="edgeStyle=orthogonalEdgeStyle;rounded=0;orthogonalLoop=1;jettySize=auto;html=1;entryX=0;entryY=0.5;entryDx=0;entryDy=0;" parent="1" source="-IUhRAs3wrBaZXGBPhYS-71" target="-IUhRAs3wrBaZXGBPhYS-74" edge="1">
          <mxGeometry relative="1" as="geometry" />
        </mxCell>
        <mxCell id="-IUhRAs3wrBaZXGBPhYS-71" value="1" style="ellipse;whiteSpace=wrap;html=1;aspect=fixed;" parent="1" vertex="1">
          <mxGeometry x="460" y="720" width="80" height="80" as="geometry" />
        </mxCell>
        <mxCell id="-IUhRAs3wrBaZXGBPhYS-72" value="f" style="text;html=1;strokeColor=none;fillColor=none;align=center;verticalAlign=middle;whiteSpace=wrap;rounded=0;" parent="1" vertex="1">
          <mxGeometry x="550" y="720" width="40" height="20" as="geometry" />
        </mxCell>
        <mxCell id="-IUhRAs3wrBaZXGBPhYS-74" value="2" style="ellipse;shape=doubleEllipse;whiteSpace=wrap;html=1;aspect=fixed;" parent="1" vertex="1">
          <mxGeometry x="610" y="720" width="80" height="80" as="geometry" />
        </mxCell>
        <mxCell id="-IUhRAs3wrBaZXGBPhYS-75" value="RETURN(if, NULL)" style="text;html=1;strokeColor=none;fillColor=none;align=center;verticalAlign=middle;whiteSpace=wrap;rounded=0;" parent="1" vertex="1">
          <mxGeometry x="730" y="750" width="40" height="20" as="geometry" />
        </mxCell>
        <mxCell id="-IUhRAs3wrBaZXGBPhYS-76" style="edgeStyle=orthogonalEdgeStyle;rounded=0;orthogonalLoop=1;jettySize=auto;html=1;entryX=0;entryY=0.5;entryDx=0;entryDy=0;" parent="1" source="-IUhRAs3wrBaZXGBPhYS-77" target="-IUhRAs3wrBaZXGBPhYS-80" edge="1">
          <mxGeometry relative="1" as="geometry" />
        </mxCell>
        <mxCell id="-IUhRAs3wrBaZXGBPhYS-77" value="0" style="ellipse;whiteSpace=wrap;html=1;aspect=fixed;" parent="1" vertex="1">
          <mxGeometry x="310" y="820" width="80" height="80" as="geometry" />
        </mxCell>
        <mxCell id="-IUhRAs3wrBaZXGBPhYS-78" value="t" style="text;html=1;strokeColor=none;fillColor=none;align=center;verticalAlign=middle;whiteSpace=wrap;rounded=0;" parent="1" vertex="1">
          <mxGeometry x="400" y="820" width="40" height="20" as="geometry" />
        </mxCell>
        <mxCell id="-IUhRAs3wrBaZXGBPhYS-79" style="edgeStyle=orthogonalEdgeStyle;rounded=0;orthogonalLoop=1;jettySize=auto;html=1;entryX=0;entryY=0.5;entryDx=0;entryDy=0;" parent="1" source="-IUhRAs3wrBaZXGBPhYS-80" target="-IUhRAs3wrBaZXGBPhYS-83" edge="1">
          <mxGeometry relative="1" as="geometry" />
        </mxCell>
        <mxCell id="-IUhRAs3wrBaZXGBPhYS-80" value="1" style="ellipse;whiteSpace=wrap;html=1;aspect=fixed;" parent="1" vertex="1">
          <mxGeometry x="460" y="820" width="80" height="80" as="geometry" />
        </mxCell>
        <mxCell id="-IUhRAs3wrBaZXGBPhYS-81" value="h" style="text;html=1;strokeColor=none;fillColor=none;align=center;verticalAlign=middle;whiteSpace=wrap;rounded=0;" parent="1" vertex="1">
          <mxGeometry x="550" y="820" width="40" height="20" as="geometry" />
        </mxCell>
        <mxCell id="-IUhRAs3wrBaZXGBPhYS-82" style="edgeStyle=orthogonalEdgeStyle;rounded=0;orthogonalLoop=1;jettySize=auto;html=1;entryX=0;entryY=0.5;entryDx=0;entryDy=0;" parent="1" source="-IUhRAs3wrBaZXGBPhYS-83" target="-IUhRAs3wrBaZXGBPhYS-86" edge="1">
          <mxGeometry relative="1" as="geometry" />
        </mxCell>
        <mxCell id="-IUhRAs3wrBaZXGBPhYS-83" value="2" style="ellipse;whiteSpace=wrap;html=1;aspect=fixed;" parent="1" vertex="1">
          <mxGeometry x="610" y="820" width="80" height="80" as="geometry" />
        </mxCell>
        <mxCell id="-IUhRAs3wrBaZXGBPhYS-84" value="e" style="text;html=1;strokeColor=none;fillColor=none;align=center;verticalAlign=middle;whiteSpace=wrap;rounded=0;" parent="1" vertex="1">
          <mxGeometry x="700" y="820" width="40" height="20" as="geometry" />
        </mxCell>
        <mxCell id="-IUhRAs3wrBaZXGBPhYS-85" style="edgeStyle=orthogonalEdgeStyle;rounded=0;orthogonalLoop=1;jettySize=auto;html=1;entryX=0;entryY=0.5;entryDx=0;entryDy=0;" parent="1" source="-IUhRAs3wrBaZXGBPhYS-86" target="-IUhRAs3wrBaZXGBPhYS-89" edge="1">
          <mxGeometry relative="1" as="geometry" />
        </mxCell>
        <mxCell id="-IUhRAs3wrBaZXGBPhYS-86" value="3" style="ellipse;whiteSpace=wrap;html=1;aspect=fixed;" parent="1" vertex="1">
          <mxGeometry x="760" y="820" width="80" height="80" as="geometry" />
        </mxCell>
        <mxCell id="-IUhRAs3wrBaZXGBPhYS-87" value="n" style="text;html=1;strokeColor=none;fillColor=none;align=center;verticalAlign=middle;whiteSpace=wrap;rounded=0;" parent="1" vertex="1">
          <mxGeometry x="850" y="820" width="40" height="20" as="geometry" />
        </mxCell>
        <mxCell id="-IUhRAs3wrBaZXGBPhYS-89" value="4" style="ellipse;shape=doubleEllipse;whiteSpace=wrap;html=1;aspect=fixed;" parent="1" vertex="1">
          <mxGeometry x="910" y="820" width="80" height="80" as="geometry" />
        </mxCell>
        <mxCell id="-IUhRAs3wrBaZXGBPhYS-90" value="RETURN(then, NULL)" style="text;html=1;strokeColor=none;fillColor=none;align=center;verticalAlign=middle;whiteSpace=wrap;rounded=0;" parent="1" vertex="1">
          <mxGeometry x="1030" y="850" width="40" height="20" as="geometry" />
        </mxCell>
        <mxCell id="-IUhRAs3wrBaZXGBPhYS-91" style="edgeStyle=orthogonalEdgeStyle;rounded=0;orthogonalLoop=1;jettySize=auto;html=1;entryX=0;entryY=0.5;entryDx=0;entryDy=0;" parent="1" source="-IUhRAs3wrBaZXGBPhYS-92" target="-IUhRAs3wrBaZXGBPhYS-95" edge="1">
          <mxGeometry relative="1" as="geometry" />
        </mxCell>
        <mxCell id="-IUhRAs3wrBaZXGBPhYS-92" value="0" style="ellipse;whiteSpace=wrap;html=1;aspect=fixed;" parent="1" vertex="1">
          <mxGeometry x="310" y="920" width="80" height="80" as="geometry" />
        </mxCell>
        <mxCell id="-IUhRAs3wrBaZXGBPhYS-93" value="e" style="text;html=1;strokeColor=none;fillColor=none;align=center;verticalAlign=middle;whiteSpace=wrap;rounded=0;" parent="1" vertex="1">
          <mxGeometry x="400" y="920" width="40" height="20" as="geometry" />
        </mxCell>
        <mxCell id="-IUhRAs3wrBaZXGBPhYS-94" style="edgeStyle=orthogonalEdgeStyle;rounded=0;orthogonalLoop=1;jettySize=auto;html=1;entryX=0;entryY=0.5;entryDx=0;entryDy=0;" parent="1" source="-IUhRAs3wrBaZXGBPhYS-95" target="-IUhRAs3wrBaZXGBPhYS-98" edge="1">
          <mxGeometry relative="1" as="geometry" />
        </mxCell>
        <mxCell id="-IUhRAs3wrBaZXGBPhYS-95" value="1" style="ellipse;whiteSpace=wrap;html=1;aspect=fixed;" parent="1" vertex="1">
          <mxGeometry x="460" y="920" width="80" height="80" as="geometry" />
        </mxCell>
        <mxCell id="-IUhRAs3wrBaZXGBPhYS-96" value="l" style="text;html=1;strokeColor=none;fillColor=none;align=center;verticalAlign=middle;whiteSpace=wrap;rounded=0;" parent="1" vertex="1">
          <mxGeometry x="550" y="920" width="40" height="20" as="geometry" />
        </mxCell>
        <mxCell id="-IUhRAs3wrBaZXGBPhYS-97" style="edgeStyle=orthogonalEdgeStyle;rounded=0;orthogonalLoop=1;jettySize=auto;html=1;entryX=0;entryY=0.5;entryDx=0;entryDy=0;" parent="1" source="-IUhRAs3wrBaZXGBPhYS-98" target="-IUhRAs3wrBaZXGBPhYS-101" edge="1">
          <mxGeometry relative="1" as="geometry" />
        </mxCell>
        <mxCell id="-IUhRAs3wrBaZXGBPhYS-98" value="2" style="ellipse;whiteSpace=wrap;html=1;aspect=fixed;" parent="1" vertex="1">
          <mxGeometry x="610" y="920" width="80" height="80" as="geometry" />
        </mxCell>
        <mxCell id="-IUhRAs3wrBaZXGBPhYS-99" value="s" style="text;html=1;strokeColor=none;fillColor=none;align=center;verticalAlign=middle;whiteSpace=wrap;rounded=0;" parent="1" vertex="1">
          <mxGeometry x="700" y="920" width="40" height="20" as="geometry" />
        </mxCell>
        <mxCell id="-IUhRAs3wrBaZXGBPhYS-100" style="edgeStyle=orthogonalEdgeStyle;rounded=0;orthogonalLoop=1;jettySize=auto;html=1;entryX=0;entryY=0.5;entryDx=0;entryDy=0;" parent="1" source="-IUhRAs3wrBaZXGBPhYS-101" target="-IUhRAs3wrBaZXGBPhYS-104" edge="1">
          <mxGeometry relative="1" as="geometry" />
        </mxCell>
        <mxCell id="-IUhRAs3wrBaZXGBPhYS-101" value="3" style="ellipse;whiteSpace=wrap;html=1;aspect=fixed;" parent="1" vertex="1">
          <mxGeometry x="760" y="920" width="80" height="80" as="geometry" />
        </mxCell>
        <mxCell id="-IUhRAs3wrBaZXGBPhYS-102" value="e" style="text;html=1;strokeColor=none;fillColor=none;align=center;verticalAlign=middle;whiteSpace=wrap;rounded=0;" parent="1" vertex="1">
          <mxGeometry x="850" y="920" width="40" height="20" as="geometry" />
        </mxCell>
        <mxCell id="-IUhRAs3wrBaZXGBPhYS-104" value="4" style="ellipse;shape=doubleEllipse;whiteSpace=wrap;html=1;aspect=fixed;" parent="1" vertex="1">
          <mxGeometry x="910" y="920" width="80" height="80" as="geometry" />
        </mxCell>
        <mxCell id="-IUhRAs3wrBaZXGBPhYS-105" value="RETURN(else, NULL)" style="text;html=1;strokeColor=none;fillColor=none;align=center;verticalAlign=middle;whiteSpace=wrap;rounded=0;" parent="1" vertex="1">
          <mxGeometry x="1030" y="950" width="40" height="20" as="geometry" />
        </mxCell>
        <mxCell id="-IUhRAs3wrBaZXGBPhYS-106" style="edgeStyle=orthogonalEdgeStyle;rounded=0;orthogonalLoop=1;jettySize=auto;html=1;entryX=0;entryY=0.5;entryDx=0;entryDy=0;" parent="1" source="-IUhRAs3wrBaZXGBPhYS-107" target="-IUhRAs3wrBaZXGBPhYS-110" edge="1">
          <mxGeometry relative="1" as="geometry" />
        </mxCell>
        <mxCell id="-IUhRAs3wrBaZXGBPhYS-107" value="0" style="ellipse;whiteSpace=wrap;html=1;aspect=fixed;" parent="1" vertex="1">
          <mxGeometry x="310" y="1020" width="80" height="80" as="geometry" />
        </mxCell>
        <mxCell id="-IUhRAs3wrBaZXGBPhYS-108" value="i" style="text;html=1;strokeColor=none;fillColor=none;align=center;verticalAlign=middle;whiteSpace=wrap;rounded=0;" parent="1" vertex="1">
          <mxGeometry x="400" y="1020" width="40" height="20" as="geometry" />
        </mxCell>
        <mxCell id="-IUhRAs3wrBaZXGBPhYS-109" style="edgeStyle=orthogonalEdgeStyle;rounded=0;orthogonalLoop=1;jettySize=auto;html=1;entryX=0;entryY=0.5;entryDx=0;entryDy=0;" parent="1" source="-IUhRAs3wrBaZXGBPhYS-110" target="-IUhRAs3wrBaZXGBPhYS-113" edge="1">
          <mxGeometry relative="1" as="geometry" />
        </mxCell>
        <mxCell id="-IUhRAs3wrBaZXGBPhYS-110" value="1" style="ellipse;whiteSpace=wrap;html=1;aspect=fixed;" parent="1" vertex="1">
          <mxGeometry x="460" y="1020" width="80" height="80" as="geometry" />
        </mxCell>
        <mxCell id="-IUhRAs3wrBaZXGBPhYS-111" value="n" style="text;html=1;strokeColor=none;fillColor=none;align=center;verticalAlign=middle;whiteSpace=wrap;rounded=0;" parent="1" vertex="1">
          <mxGeometry x="550" y="1020" width="40" height="20" as="geometry" />
        </mxCell>
        <mxCell id="-IUhRAs3wrBaZXGBPhYS-112" style="edgeStyle=orthogonalEdgeStyle;rounded=0;orthogonalLoop=1;jettySize=auto;html=1;entryX=0;entryY=0.5;entryDx=0;entryDy=0;" parent="1" source="-IUhRAs3wrBaZXGBPhYS-113" target="-IUhRAs3wrBaZXGBPhYS-116" edge="1">
          <mxGeometry relative="1" as="geometry" />
        </mxCell>
        <mxCell id="-IUhRAs3wrBaZXGBPhYS-113" value="2" style="ellipse;whiteSpace=wrap;html=1;aspect=fixed;" parent="1" vertex="1">
          <mxGeometry x="610" y="1020" width="80" height="80" as="geometry" />
        </mxCell>
        <mxCell id="-IUhRAs3wrBaZXGBPhYS-114" value="t" style="text;html=1;strokeColor=none;fillColor=none;align=center;verticalAlign=middle;whiteSpace=wrap;rounded=0;" parent="1" vertex="1">
          <mxGeometry x="700" y="1020" width="40" height="20" as="geometry" />
        </mxCell>
        <mxCell id="-IUhRAs3wrBaZXGBPhYS-116" value="3" style="ellipse;shape=doubleEllipse;whiteSpace=wrap;html=1;aspect=fixed;" parent="1" vertex="1">
          <mxGeometry x="760" y="1020" width="80" height="80" as="geometry" />
        </mxCell>
        <mxCell id="-IUhRAs3wrBaZXGBPhYS-117" value="RETURN(tipo, INT)" style="text;html=1;strokeColor=none;fillColor=none;align=center;verticalAlign=middle;whiteSpace=wrap;rounded=0;" parent="1" vertex="1">
          <mxGeometry x="880" y="1050" width="40" height="20" as="geometry" />
        </mxCell>
        <mxCell id="-IUhRAs3wrBaZXGBPhYS-118" style="edgeStyle=orthogonalEdgeStyle;rounded=0;orthogonalLoop=1;jettySize=auto;html=1;entryX=0;entryY=0.5;entryDx=0;entryDy=0;" parent="1" source="-IUhRAs3wrBaZXGBPhYS-119" target="-IUhRAs3wrBaZXGBPhYS-122" edge="1">
          <mxGeometry relative="1" as="geometry" />
        </mxCell>
        <mxCell id="-IUhRAs3wrBaZXGBPhYS-119" value="0" style="ellipse;whiteSpace=wrap;html=1;aspect=fixed;" parent="1" vertex="1">
          <mxGeometry x="310" y="1120" width="80" height="80" as="geometry" />
        </mxCell>
        <mxCell id="-IUhRAs3wrBaZXGBPhYS-120" value="c" style="text;html=1;strokeColor=none;fillColor=none;align=center;verticalAlign=middle;whiteSpace=wrap;rounded=0;" parent="1" vertex="1">
          <mxGeometry x="400" y="1120" width="40" height="20" as="geometry" />
        </mxCell>
        <mxCell id="-IUhRAs3wrBaZXGBPhYS-121" style="edgeStyle=orthogonalEdgeStyle;rounded=0;orthogonalLoop=1;jettySize=auto;html=1;entryX=0;entryY=0.5;entryDx=0;entryDy=0;" parent="1" source="-IUhRAs3wrBaZXGBPhYS-122" target="-IUhRAs3wrBaZXGBPhYS-125" edge="1">
          <mxGeometry relative="1" as="geometry" />
        </mxCell>
        <mxCell id="-IUhRAs3wrBaZXGBPhYS-122" value="1" style="ellipse;whiteSpace=wrap;html=1;aspect=fixed;" parent="1" vertex="1">
          <mxGeometry x="460" y="1120" width="80" height="80" as="geometry" />
        </mxCell>
        <mxCell id="-IUhRAs3wrBaZXGBPhYS-123" value="h" style="text;html=1;strokeColor=none;fillColor=none;align=center;verticalAlign=middle;whiteSpace=wrap;rounded=0;" parent="1" vertex="1">
          <mxGeometry x="550" y="1120" width="40" height="20" as="geometry" />
        </mxCell>
        <mxCell id="-IUhRAs3wrBaZXGBPhYS-124" style="edgeStyle=orthogonalEdgeStyle;rounded=0;orthogonalLoop=1;jettySize=auto;html=1;entryX=0;entryY=0.5;entryDx=0;entryDy=0;" parent="1" source="-IUhRAs3wrBaZXGBPhYS-125" target="-IUhRAs3wrBaZXGBPhYS-128" edge="1">
          <mxGeometry relative="1" as="geometry" />
        </mxCell>
        <mxCell id="-IUhRAs3wrBaZXGBPhYS-125" value="2" style="ellipse;whiteSpace=wrap;html=1;aspect=fixed;" parent="1" vertex="1">
          <mxGeometry x="610" y="1120" width="80" height="80" as="geometry" />
        </mxCell>
        <mxCell id="-IUhRAs3wrBaZXGBPhYS-126" value="a" style="text;html=1;strokeColor=none;fillColor=none;align=center;verticalAlign=middle;whiteSpace=wrap;rounded=0;" parent="1" vertex="1">
          <mxGeometry x="700" y="1120" width="40" height="20" as="geometry" />
        </mxCell>
        <mxCell id="-IUhRAs3wrBaZXGBPhYS-127" style="edgeStyle=orthogonalEdgeStyle;rounded=0;orthogonalLoop=1;jettySize=auto;html=1;entryX=0;entryY=0.5;entryDx=0;entryDy=0;" parent="1" source="-IUhRAs3wrBaZXGBPhYS-128" target="-IUhRAs3wrBaZXGBPhYS-131" edge="1">
          <mxGeometry relative="1" as="geometry" />
        </mxCell>
        <mxCell id="-IUhRAs3wrBaZXGBPhYS-128" value="3" style="ellipse;whiteSpace=wrap;html=1;aspect=fixed;" parent="1" vertex="1">
          <mxGeometry x="760" y="1120" width="80" height="80" as="geometry" />
        </mxCell>
        <mxCell id="-IUhRAs3wrBaZXGBPhYS-129" value="r" style="text;html=1;strokeColor=none;fillColor=none;align=center;verticalAlign=middle;whiteSpace=wrap;rounded=0;" parent="1" vertex="1">
          <mxGeometry x="850" y="1120" width="40" height="20" as="geometry" />
        </mxCell>
        <mxCell id="-IUhRAs3wrBaZXGBPhYS-131" value="4" style="ellipse;shape=doubleEllipse;whiteSpace=wrap;html=1;aspect=fixed;" parent="1" vertex="1">
          <mxGeometry x="910" y="1120" width="80" height="80" as="geometry" />
        </mxCell>
        <mxCell id="-IUhRAs3wrBaZXGBPhYS-132" value="RETURN(tipo, CHAR)" style="text;html=1;strokeColor=none;fillColor=none;align=center;verticalAlign=middle;whiteSpace=wrap;rounded=0;" parent="1" vertex="1">
          <mxGeometry x="1030" y="1150" width="40" height="20" as="geometry" />
        </mxCell>
        <mxCell id="-IUhRAs3wrBaZXGBPhYS-133" style="edgeStyle=orthogonalEdgeStyle;rounded=0;orthogonalLoop=1;jettySize=auto;html=1;entryX=0;entryY=0.5;entryDx=0;entryDy=0;" parent="1" source="-IUhRAs3wrBaZXGBPhYS-134" target="-IUhRAs3wrBaZXGBPhYS-137" edge="1">
          <mxGeometry relative="1" as="geometry" />
        </mxCell>
        <mxCell id="-IUhRAs3wrBaZXGBPhYS-134" value="0" style="ellipse;whiteSpace=wrap;html=1;aspect=fixed;" parent="1" vertex="1">
          <mxGeometry x="310" y="1220" width="80" height="80" as="geometry" />
        </mxCell>
        <mxCell id="-IUhRAs3wrBaZXGBPhYS-135" value="f" style="text;html=1;strokeColor=none;fillColor=none;align=center;verticalAlign=middle;whiteSpace=wrap;rounded=0;" parent="1" vertex="1">
          <mxGeometry x="400" y="1220" width="40" height="20" as="geometry" />
        </mxCell>
        <mxCell id="-IUhRAs3wrBaZXGBPhYS-136" style="edgeStyle=orthogonalEdgeStyle;rounded=0;orthogonalLoop=1;jettySize=auto;html=1;entryX=0;entryY=0.5;entryDx=0;entryDy=0;" parent="1" source="-IUhRAs3wrBaZXGBPhYS-137" target="-IUhRAs3wrBaZXGBPhYS-140" edge="1">
          <mxGeometry relative="1" as="geometry" />
        </mxCell>
        <mxCell id="-IUhRAs3wrBaZXGBPhYS-137" value="1" style="ellipse;whiteSpace=wrap;html=1;aspect=fixed;" parent="1" vertex="1">
          <mxGeometry x="460" y="1220" width="80" height="80" as="geometry" />
        </mxCell>
        <mxCell id="-IUhRAs3wrBaZXGBPhYS-138" value="l" style="text;html=1;strokeColor=none;fillColor=none;align=center;verticalAlign=middle;whiteSpace=wrap;rounded=0;" parent="1" vertex="1">
          <mxGeometry x="550" y="1220" width="40" height="20" as="geometry" />
        </mxCell>
        <mxCell id="-IUhRAs3wrBaZXGBPhYS-139" style="edgeStyle=orthogonalEdgeStyle;rounded=0;orthogonalLoop=1;jettySize=auto;html=1;entryX=0;entryY=0.5;entryDx=0;entryDy=0;" parent="1" source="-IUhRAs3wrBaZXGBPhYS-140" target="-IUhRAs3wrBaZXGBPhYS-143" edge="1">
          <mxGeometry relative="1" as="geometry" />
        </mxCell>
        <mxCell id="-IUhRAs3wrBaZXGBPhYS-140" value="2" style="ellipse;whiteSpace=wrap;html=1;aspect=fixed;" parent="1" vertex="1">
          <mxGeometry x="610" y="1220" width="80" height="80" as="geometry" />
        </mxCell>
        <mxCell id="-IUhRAs3wrBaZXGBPhYS-141" value="o" style="text;html=1;strokeColor=none;fillColor=none;align=center;verticalAlign=middle;whiteSpace=wrap;rounded=0;" parent="1" vertex="1">
          <mxGeometry x="700" y="1220" width="40" height="20" as="geometry" />
        </mxCell>
        <mxCell id="-IUhRAs3wrBaZXGBPhYS-142" style="edgeStyle=orthogonalEdgeStyle;rounded=0;orthogonalLoop=1;jettySize=auto;html=1;entryX=0;entryY=0.5;entryDx=0;entryDy=0;" parent="1" source="-IUhRAs3wrBaZXGBPhYS-143" target="-IUhRAs3wrBaZXGBPhYS-146" edge="1">
          <mxGeometry relative="1" as="geometry" />
        </mxCell>
        <mxCell id="-IUhRAs3wrBaZXGBPhYS-143" value="3" style="ellipse;whiteSpace=wrap;html=1;aspect=fixed;" parent="1" vertex="1">
          <mxGeometry x="760" y="1220" width="80" height="80" as="geometry" />
        </mxCell>
        <mxCell id="-IUhRAs3wrBaZXGBPhYS-144" value="a" style="text;html=1;strokeColor=none;fillColor=none;align=center;verticalAlign=middle;whiteSpace=wrap;rounded=0;" parent="1" vertex="1">
          <mxGeometry x="850" y="1220" width="40" height="20" as="geometry" />
        </mxCell>
        <mxCell id="-IUhRAs3wrBaZXGBPhYS-145" style="edgeStyle=orthogonalEdgeStyle;rounded=0;orthogonalLoop=1;jettySize=auto;html=1;entryX=0;entryY=0.5;entryDx=0;entryDy=0;" parent="1" source="-IUhRAs3wrBaZXGBPhYS-146" target="-IUhRAs3wrBaZXGBPhYS-149" edge="1">
          <mxGeometry relative="1" as="geometry" />
        </mxCell>
        <mxCell id="-IUhRAs3wrBaZXGBPhYS-146" value="4" style="ellipse;whiteSpace=wrap;html=1;aspect=fixed;" parent="1" vertex="1">
          <mxGeometry x="910" y="1220" width="80" height="80" as="geometry" />
        </mxCell>
        <mxCell id="-IUhRAs3wrBaZXGBPhYS-147" value="t" style="text;html=1;strokeColor=none;fillColor=none;align=center;verticalAlign=middle;whiteSpace=wrap;rounded=0;" parent="1" vertex="1">
          <mxGeometry x="1000" y="1220" width="40" height="20" as="geometry" />
        </mxCell>
        <mxCell id="-IUhRAs3wrBaZXGBPhYS-149" value="5" style="ellipse;shape=doubleEllipse;whiteSpace=wrap;html=1;aspect=fixed;" parent="1" vertex="1">
          <mxGeometry x="1060" y="1220" width="80" height="80" as="geometry" />
        </mxCell>
        <mxCell id="-IUhRAs3wrBaZXGBPhYS-150" value="RETURN(tipo, FLOAT)" style="text;html=1;strokeColor=none;fillColor=none;align=center;verticalAlign=middle;whiteSpace=wrap;rounded=0;" parent="1" vertex="1">
          <mxGeometry x="1180" y="1250" width="40" height="20" as="geometry" />
        </mxCell>
        <mxCell id="-IUhRAs3wrBaZXGBPhYS-151" style="edgeStyle=orthogonalEdgeStyle;rounded=0;orthogonalLoop=1;jettySize=auto;html=1;entryX=0;entryY=0.5;entryDx=0;entryDy=0;" parent="1" source="-IUhRAs3wrBaZXGBPhYS-152" target="-IUhRAs3wrBaZXGBPhYS-155" edge="1">
          <mxGeometry relative="1" as="geometry" />
        </mxCell>
        <mxCell id="-IUhRAs3wrBaZXGBPhYS-152" value="0" style="ellipse;whiteSpace=wrap;html=1;aspect=fixed;" parent="1" vertex="1">
          <mxGeometry x="310" y="1320" width="80" height="80" as="geometry" />
        </mxCell>
        <mxCell id="-IUhRAs3wrBaZXGBPhYS-153" value="w" style="text;html=1;strokeColor=none;fillColor=none;align=center;verticalAlign=middle;whiteSpace=wrap;rounded=0;" parent="1" vertex="1">
          <mxGeometry x="400" y="1320" width="40" height="20" as="geometry" />
        </mxCell>
        <mxCell id="-IUhRAs3wrBaZXGBPhYS-154" style="edgeStyle=orthogonalEdgeStyle;rounded=0;orthogonalLoop=1;jettySize=auto;html=1;entryX=0;entryY=0.5;entryDx=0;entryDy=0;" parent="1" source="-IUhRAs3wrBaZXGBPhYS-155" target="-IUhRAs3wrBaZXGBPhYS-158" edge="1">
          <mxGeometry relative="1" as="geometry" />
        </mxCell>
        <mxCell id="-IUhRAs3wrBaZXGBPhYS-155" value="1" style="ellipse;whiteSpace=wrap;html=1;aspect=fixed;" parent="1" vertex="1">
          <mxGeometry x="460" y="1320" width="80" height="80" as="geometry" />
        </mxCell>
        <mxCell id="-IUhRAs3wrBaZXGBPhYS-156" value="h" style="text;html=1;strokeColor=none;fillColor=none;align=center;verticalAlign=middle;whiteSpace=wrap;rounded=0;" parent="1" vertex="1">
          <mxGeometry x="550" y="1320" width="40" height="20" as="geometry" />
        </mxCell>
        <mxCell id="-IUhRAs3wrBaZXGBPhYS-157" style="edgeStyle=orthogonalEdgeStyle;rounded=0;orthogonalLoop=1;jettySize=auto;html=1;entryX=0;entryY=0.5;entryDx=0;entryDy=0;" parent="1" source="-IUhRAs3wrBaZXGBPhYS-158" target="-IUhRAs3wrBaZXGBPhYS-161" edge="1">
          <mxGeometry relative="1" as="geometry" />
        </mxCell>
        <mxCell id="-IUhRAs3wrBaZXGBPhYS-158" value="2" style="ellipse;whiteSpace=wrap;html=1;aspect=fixed;" parent="1" vertex="1">
          <mxGeometry x="610" y="1320" width="80" height="80" as="geometry" />
        </mxCell>
        <mxCell id="-IUhRAs3wrBaZXGBPhYS-159" value="i" style="text;html=1;strokeColor=none;fillColor=none;align=center;verticalAlign=middle;whiteSpace=wrap;rounded=0;" parent="1" vertex="1">
          <mxGeometry x="700" y="1320" width="40" height="20" as="geometry" />
        </mxCell>
        <mxCell id="-IUhRAs3wrBaZXGBPhYS-160" style="edgeStyle=orthogonalEdgeStyle;rounded=0;orthogonalLoop=1;jettySize=auto;html=1;entryX=0;entryY=0.5;entryDx=0;entryDy=0;" parent="1" source="-IUhRAs3wrBaZXGBPhYS-161" target="-IUhRAs3wrBaZXGBPhYS-164" edge="1">
          <mxGeometry relative="1" as="geometry" />
        </mxCell>
        <mxCell id="-IUhRAs3wrBaZXGBPhYS-161" value="3" style="ellipse;whiteSpace=wrap;html=1;aspect=fixed;" parent="1" vertex="1">
          <mxGeometry x="760" y="1320" width="80" height="80" as="geometry" />
        </mxCell>
        <mxCell id="-IUhRAs3wrBaZXGBPhYS-162" value="l" style="text;html=1;strokeColor=none;fillColor=none;align=center;verticalAlign=middle;whiteSpace=wrap;rounded=0;" parent="1" vertex="1">
          <mxGeometry x="850" y="1320" width="40" height="20" as="geometry" />
        </mxCell>
        <mxCell id="-IUhRAs3wrBaZXGBPhYS-163" style="edgeStyle=orthogonalEdgeStyle;rounded=0;orthogonalLoop=1;jettySize=auto;html=1;entryX=0;entryY=0.5;entryDx=0;entryDy=0;" parent="1" source="-IUhRAs3wrBaZXGBPhYS-164" target="-IUhRAs3wrBaZXGBPhYS-167" edge="1">
          <mxGeometry relative="1" as="geometry" />
        </mxCell>
        <mxCell id="-IUhRAs3wrBaZXGBPhYS-164" value="4" style="ellipse;whiteSpace=wrap;html=1;aspect=fixed;" parent="1" vertex="1">
          <mxGeometry x="910" y="1320" width="80" height="80" as="geometry" />
        </mxCell>
        <mxCell id="-IUhRAs3wrBaZXGBPhYS-165" value="e" style="text;html=1;strokeColor=none;fillColor=none;align=center;verticalAlign=middle;whiteSpace=wrap;rounded=0;" parent="1" vertex="1">
          <mxGeometry x="1000" y="1320" width="40" height="20" as="geometry" />
        </mxCell>
        <mxCell id="-IUhRAs3wrBaZXGBPhYS-167" value="5" style="ellipse;shape=doubleEllipse;whiteSpace=wrap;html=1;aspect=fixed;" parent="1" vertex="1">
          <mxGeometry x="1060" y="1320" width="80" height="80" as="geometry" />
        </mxCell>
        <mxCell id="-IUhRAs3wrBaZXGBPhYS-168" value="RETURN(while, NULL)" style="text;html=1;strokeColor=none;fillColor=none;align=center;verticalAlign=middle;whiteSpace=wrap;rounded=0;" parent="1" vertex="1">
          <mxGeometry x="1180" y="1350" width="40" height="20" as="geometry" />
        </mxCell>
        <mxCell id="-IUhRAs3wrBaZXGBPhYS-169" style="edgeStyle=orthogonalEdgeStyle;rounded=0;orthogonalLoop=1;jettySize=auto;html=1;entryX=0;entryY=0.5;entryDx=0;entryDy=0;" parent="1" source="-IUhRAs3wrBaZXGBPhYS-170" target="-IUhRAs3wrBaZXGBPhYS-173" edge="1">
          <mxGeometry relative="1" as="geometry" />
        </mxCell>
        <mxCell id="-IUhRAs3wrBaZXGBPhYS-170" value="0" style="ellipse;whiteSpace=wrap;html=1;aspect=fixed;" parent="1" vertex="1">
          <mxGeometry x="310" y="1420" width="80" height="80" as="geometry" />
        </mxCell>
        <mxCell id="-IUhRAs3wrBaZXGBPhYS-171" value="r" style="text;html=1;strokeColor=none;fillColor=none;align=center;verticalAlign=middle;whiteSpace=wrap;rounded=0;" parent="1" vertex="1">
          <mxGeometry x="400" y="1420" width="40" height="20" as="geometry" />
        </mxCell>
        <mxCell id="-IUhRAs3wrBaZXGBPhYS-172" style="edgeStyle=orthogonalEdgeStyle;rounded=0;orthogonalLoop=1;jettySize=auto;html=1;entryX=0;entryY=0.5;entryDx=0;entryDy=0;" parent="1" source="-IUhRAs3wrBaZXGBPhYS-173" target="-IUhRAs3wrBaZXGBPhYS-176" edge="1">
          <mxGeometry relative="1" as="geometry" />
        </mxCell>
        <mxCell id="-IUhRAs3wrBaZXGBPhYS-173" value="1" style="ellipse;whiteSpace=wrap;html=1;aspect=fixed;" parent="1" vertex="1">
          <mxGeometry x="460" y="1420" width="80" height="80" as="geometry" />
        </mxCell>
        <mxCell id="-IUhRAs3wrBaZXGBPhYS-174" value="e" style="text;html=1;strokeColor=none;fillColor=none;align=center;verticalAlign=middle;whiteSpace=wrap;rounded=0;" parent="1" vertex="1">
          <mxGeometry x="550" y="1420" width="40" height="20" as="geometry" />
        </mxCell>
        <mxCell id="-IUhRAs3wrBaZXGBPhYS-175" style="edgeStyle=orthogonalEdgeStyle;rounded=0;orthogonalLoop=1;jettySize=auto;html=1;entryX=0;entryY=0.5;entryDx=0;entryDy=0;" parent="1" source="-IUhRAs3wrBaZXGBPhYS-176" target="-IUhRAs3wrBaZXGBPhYS-179" edge="1">
          <mxGeometry relative="1" as="geometry" />
        </mxCell>
        <mxCell id="-IUhRAs3wrBaZXGBPhYS-176" value="2" style="ellipse;whiteSpace=wrap;html=1;aspect=fixed;" parent="1" vertex="1">
          <mxGeometry x="610" y="1420" width="80" height="80" as="geometry" />
        </mxCell>
        <mxCell id="-IUhRAs3wrBaZXGBPhYS-177" value="p" style="text;html=1;strokeColor=none;fillColor=none;align=center;verticalAlign=middle;whiteSpace=wrap;rounded=0;" parent="1" vertex="1">
          <mxGeometry x="700" y="1420" width="40" height="20" as="geometry" />
        </mxCell>
        <mxCell id="-IUhRAs3wrBaZXGBPhYS-178" style="edgeStyle=orthogonalEdgeStyle;rounded=0;orthogonalLoop=1;jettySize=auto;html=1;entryX=0;entryY=0.5;entryDx=0;entryDy=0;" parent="1" source="-IUhRAs3wrBaZXGBPhYS-179" target="-IUhRAs3wrBaZXGBPhYS-182" edge="1">
          <mxGeometry relative="1" as="geometry" />
        </mxCell>
        <mxCell id="-IUhRAs3wrBaZXGBPhYS-179" value="3" style="ellipse;whiteSpace=wrap;html=1;aspect=fixed;" parent="1" vertex="1">
          <mxGeometry x="760" y="1420" width="80" height="80" as="geometry" />
        </mxCell>
        <mxCell id="-IUhRAs3wrBaZXGBPhYS-180" value="e" style="text;html=1;strokeColor=none;fillColor=none;align=center;verticalAlign=middle;whiteSpace=wrap;rounded=0;" parent="1" vertex="1">
          <mxGeometry x="850" y="1420" width="40" height="20" as="geometry" />
        </mxCell>
        <mxCell id="-IUhRAs3wrBaZXGBPhYS-181" style="edgeStyle=orthogonalEdgeStyle;rounded=0;orthogonalLoop=1;jettySize=auto;html=1;entryX=0;entryY=0.5;entryDx=0;entryDy=0;" parent="1" source="-IUhRAs3wrBaZXGBPhYS-182" target="-IUhRAs3wrBaZXGBPhYS-185" edge="1">
          <mxGeometry relative="1" as="geometry" />
        </mxCell>
        <mxCell id="-IUhRAs3wrBaZXGBPhYS-182" value="4" style="ellipse;whiteSpace=wrap;html=1;aspect=fixed;" parent="1" vertex="1">
          <mxGeometry x="910" y="1420" width="80" height="80" as="geometry" />
        </mxCell>
        <mxCell id="-IUhRAs3wrBaZXGBPhYS-183" value="a" style="text;html=1;strokeColor=none;fillColor=none;align=center;verticalAlign=middle;whiteSpace=wrap;rounded=0;" parent="1" vertex="1">
          <mxGeometry x="1000" y="1420" width="40" height="20" as="geometry" />
        </mxCell>
        <mxCell id="-IUhRAs3wrBaZXGBPhYS-184" style="edgeStyle=orthogonalEdgeStyle;rounded=0;orthogonalLoop=1;jettySize=auto;html=1;entryX=0;entryY=0.5;entryDx=0;entryDy=0;" parent="1" source="-IUhRAs3wrBaZXGBPhYS-185" target="-IUhRAs3wrBaZXGBPhYS-188" edge="1">
          <mxGeometry relative="1" as="geometry" />
        </mxCell>
        <mxCell id="-IUhRAs3wrBaZXGBPhYS-185" value="5" style="ellipse;whiteSpace=wrap;html=1;aspect=fixed;" parent="1" vertex="1">
          <mxGeometry x="1060" y="1420" width="80" height="80" as="geometry" />
        </mxCell>
        <mxCell id="-IUhRAs3wrBaZXGBPhYS-186" value="t" style="text;html=1;strokeColor=none;fillColor=none;align=center;verticalAlign=middle;whiteSpace=wrap;rounded=0;" parent="1" vertex="1">
          <mxGeometry x="1150" y="1420" width="40" height="20" as="geometry" />
        </mxCell>
        <mxCell id="-IUhRAs3wrBaZXGBPhYS-188" value="6" style="ellipse;shape=doubleEllipse;whiteSpace=wrap;html=1;aspect=fixed;" parent="1" vertex="1">
          <mxGeometry x="1210" y="1420" width="80" height="80" as="geometry" />
        </mxCell>
        <mxCell id="-IUhRAs3wrBaZXGBPhYS-189" value="RETURN(repeat, NULL)" style="text;html=1;strokeColor=none;fillColor=none;align=center;verticalAlign=middle;whiteSpace=wrap;rounded=0;" parent="1" vertex="1">
          <mxGeometry x="1330" y="1450" width="40" height="20" as="geometry" />
        </mxCell>
        <mxCell id="-IUhRAs3wrBaZXGBPhYS-190" style="edgeStyle=orthogonalEdgeStyle;rounded=0;orthogonalLoop=1;jettySize=auto;html=1;entryX=0;entryY=0.5;entryDx=0;entryDy=0;" parent="1" source="-IUhRAs3wrBaZXGBPhYS-191" target="-IUhRAs3wrBaZXGBPhYS-194" edge="1">
          <mxGeometry relative="1" as="geometry" />
        </mxCell>
        <mxCell id="-IUhRAs3wrBaZXGBPhYS-191" value="0" style="ellipse;whiteSpace=wrap;html=1;aspect=fixed;" parent="1" vertex="1">
          <mxGeometry x="310" y="1520" width="80" height="80" as="geometry" />
        </mxCell>
        <mxCell id="-IUhRAs3wrBaZXGBPhYS-192" value="u" style="text;html=1;strokeColor=none;fillColor=none;align=center;verticalAlign=middle;whiteSpace=wrap;rounded=0;" parent="1" vertex="1">
          <mxGeometry x="400" y="1520" width="40" height="20" as="geometry" />
        </mxCell>
        <mxCell id="-IUhRAs3wrBaZXGBPhYS-193" style="edgeStyle=orthogonalEdgeStyle;rounded=0;orthogonalLoop=1;jettySize=auto;html=1;entryX=0;entryY=0.5;entryDx=0;entryDy=0;" parent="1" source="-IUhRAs3wrBaZXGBPhYS-194" target="-IUhRAs3wrBaZXGBPhYS-197" edge="1">
          <mxGeometry relative="1" as="geometry" />
        </mxCell>
        <mxCell id="-IUhRAs3wrBaZXGBPhYS-194" value="1" style="ellipse;whiteSpace=wrap;html=1;aspect=fixed;" parent="1" vertex="1">
          <mxGeometry x="460" y="1520" width="80" height="80" as="geometry" />
        </mxCell>
        <mxCell id="-IUhRAs3wrBaZXGBPhYS-195" value="n" style="text;html=1;strokeColor=none;fillColor=none;align=center;verticalAlign=middle;whiteSpace=wrap;rounded=0;" parent="1" vertex="1">
          <mxGeometry x="550" y="1520" width="40" height="20" as="geometry" />
        </mxCell>
        <mxCell id="-IUhRAs3wrBaZXGBPhYS-196" style="edgeStyle=orthogonalEdgeStyle;rounded=0;orthogonalLoop=1;jettySize=auto;html=1;entryX=0;entryY=0.5;entryDx=0;entryDy=0;" parent="1" source="-IUhRAs3wrBaZXGBPhYS-197" target="-IUhRAs3wrBaZXGBPhYS-200" edge="1">
          <mxGeometry relative="1" as="geometry" />
        </mxCell>
        <mxCell id="-IUhRAs3wrBaZXGBPhYS-197" value="2" style="ellipse;whiteSpace=wrap;html=1;aspect=fixed;" parent="1" vertex="1">
          <mxGeometry x="610" y="1520" width="80" height="80" as="geometry" />
        </mxCell>
        <mxCell id="-IUhRAs3wrBaZXGBPhYS-198" value="t" style="text;html=1;strokeColor=none;fillColor=none;align=center;verticalAlign=middle;whiteSpace=wrap;rounded=0;" parent="1" vertex="1">
          <mxGeometry x="700" y="1520" width="40" height="20" as="geometry" />
        </mxCell>
        <mxCell id="-IUhRAs3wrBaZXGBPhYS-199" style="edgeStyle=orthogonalEdgeStyle;rounded=0;orthogonalLoop=1;jettySize=auto;html=1;entryX=0;entryY=0.5;entryDx=0;entryDy=0;" parent="1" source="-IUhRAs3wrBaZXGBPhYS-200" target="-IUhRAs3wrBaZXGBPhYS-203" edge="1">
          <mxGeometry relative="1" as="geometry" />
        </mxCell>
        <mxCell id="-IUhRAs3wrBaZXGBPhYS-200" value="3" style="ellipse;whiteSpace=wrap;html=1;aspect=fixed;" parent="1" vertex="1">
          <mxGeometry x="760" y="1520" width="80" height="80" as="geometry" />
        </mxCell>
        <mxCell id="-IUhRAs3wrBaZXGBPhYS-201" value="i" style="text;html=1;strokeColor=none;fillColor=none;align=center;verticalAlign=middle;whiteSpace=wrap;rounded=0;" parent="1" vertex="1">
          <mxGeometry x="850" y="1520" width="40" height="20" as="geometry" />
        </mxCell>
        <mxCell id="-IUhRAs3wrBaZXGBPhYS-202" style="edgeStyle=orthogonalEdgeStyle;rounded=0;orthogonalLoop=1;jettySize=auto;html=1;entryX=0;entryY=0.5;entryDx=0;entryDy=0;" parent="1" source="-IUhRAs3wrBaZXGBPhYS-203" target="-IUhRAs3wrBaZXGBPhYS-206" edge="1">
          <mxGeometry relative="1" as="geometry" />
        </mxCell>
        <mxCell id="-IUhRAs3wrBaZXGBPhYS-203" value="4" style="ellipse;whiteSpace=wrap;html=1;aspect=fixed;" parent="1" vertex="1">
          <mxGeometry x="910" y="1520" width="80" height="80" as="geometry" />
        </mxCell>
        <mxCell id="-IUhRAs3wrBaZXGBPhYS-204" value="l" style="text;html=1;strokeColor=none;fillColor=none;align=center;verticalAlign=middle;whiteSpace=wrap;rounded=0;" parent="1" vertex="1">
          <mxGeometry x="1000" y="1520" width="40" height="20" as="geometry" />
        </mxCell>
        <mxCell id="-IUhRAs3wrBaZXGBPhYS-206" value="5" style="ellipse;shape=doubleEllipse;whiteSpace=wrap;html=1;aspect=fixed;" parent="1" vertex="1">
          <mxGeometry x="1060" y="1520" width="80" height="80" as="geometry" />
        </mxCell>
        <mxCell id="-IUhRAs3wrBaZXGBPhYS-207" value="RETURN(until, NULL)" style="text;html=1;strokeColor=none;fillColor=none;align=center;verticalAlign=middle;whiteSpace=wrap;rounded=0;" parent="1" vertex="1">
          <mxGeometry x="1180" y="1550" width="40" height="20" as="geometry" />
        </mxCell>
        <mxCell id="-IUhRAs3wrBaZXGBPhYS-208" style="edgeStyle=orthogonalEdgeStyle;rounded=0;orthogonalLoop=1;jettySize=auto;html=1;entryX=0;entryY=0.5;entryDx=0;entryDy=0;" parent="1" source="-IUhRAs3wrBaZXGBPhYS-209" target="-IUhRAs3wrBaZXGBPhYS-212" edge="1">
          <mxGeometry relative="1" as="geometry" />
        </mxCell>
        <mxCell id="-IUhRAs3wrBaZXGBPhYS-209" value="0" style="ellipse;whiteSpace=wrap;html=1;aspect=fixed;" parent="1" vertex="1">
          <mxGeometry x="310" y="1620" width="80" height="80" as="geometry" />
        </mxCell>
        <mxCell id="-IUhRAs3wrBaZXGBPhYS-210" value="," style="text;html=1;strokeColor=none;fillColor=none;align=center;verticalAlign=middle;whiteSpace=wrap;rounded=0;" parent="1" vertex="1">
          <mxGeometry x="400" y="1620" width="40" height="20" as="geometry" />
        </mxCell>
        <mxCell id="-IUhRAs3wrBaZXGBPhYS-212" value="1" style="ellipse;shape=doubleEllipse;whiteSpace=wrap;html=1;aspect=fixed;" parent="1" vertex="1">
          <mxGeometry x="460" y="1620" width="80" height="80" as="geometry" />
        </mxCell>
        <mxCell id="-IUhRAs3wrBaZXGBPhYS-213" value="RETURN(,, NULL)" style="text;html=1;strokeColor=none;fillColor=none;align=center;verticalAlign=middle;whiteSpace=wrap;rounded=0;" parent="1" vertex="1">
          <mxGeometry x="580" y="1650" width="40" height="20" as="geometry" />
        </mxCell>
        <mxCell id="-IUhRAs3wrBaZXGBPhYS-214" style="edgeStyle=orthogonalEdgeStyle;rounded=0;orthogonalLoop=1;jettySize=auto;html=1;entryX=0;entryY=0.5;entryDx=0;entryDy=0;" parent="1" source="-IUhRAs3wrBaZXGBPhYS-215" target="-IUhRAs3wrBaZXGBPhYS-218" edge="1">
          <mxGeometry relative="1" as="geometry" />
        </mxCell>
        <mxCell id="-IUhRAs3wrBaZXGBPhYS-215" value="0" style="ellipse;whiteSpace=wrap;html=1;aspect=fixed;" parent="1" vertex="1">
          <mxGeometry x="310" y="1720" width="80" height="80" as="geometry" />
        </mxCell>
        <mxCell id="-IUhRAs3wrBaZXGBPhYS-216" value=":" style="text;html=1;strokeColor=none;fillColor=none;align=center;verticalAlign=middle;whiteSpace=wrap;rounded=0;" parent="1" vertex="1">
          <mxGeometry x="400" y="1720" width="40" height="20" as="geometry" />
        </mxCell>
        <mxCell id="-IUhRAs3wrBaZXGBPhYS-218" value="1" style="ellipse;shape=doubleEllipse;whiteSpace=wrap;html=1;aspect=fixed;" parent="1" vertex="1">
          <mxGeometry x="460" y="1720" width="80" height="80" as="geometry" />
        </mxCell>
        <mxCell id="-IUhRAs3wrBaZXGBPhYS-219" value="RETURN(:, NULL)" style="text;html=1;strokeColor=none;fillColor=none;align=center;verticalAlign=middle;whiteSpace=wrap;rounded=0;" parent="1" vertex="1">
          <mxGeometry x="580" y="1750" width="40" height="20" as="geometry" />
        </mxCell>
        <mxCell id="-IUhRAs3wrBaZXGBPhYS-220" style="edgeStyle=orthogonalEdgeStyle;rounded=0;orthogonalLoop=1;jettySize=auto;html=1;entryX=0;entryY=0.5;entryDx=0;entryDy=0;" parent="1" source="-IUhRAs3wrBaZXGBPhYS-221" target="-IUhRAs3wrBaZXGBPhYS-224" edge="1">
          <mxGeometry relative="1" as="geometry" />
        </mxCell>
        <mxCell id="-IUhRAs3wrBaZXGBPhYS-221" value="0" style="ellipse;whiteSpace=wrap;html=1;aspect=fixed;" parent="1" vertex="1">
          <mxGeometry x="310" y="1820" width="80" height="80" as="geometry" />
        </mxCell>
        <mxCell id="-IUhRAs3wrBaZXGBPhYS-222" value=";" style="text;html=1;strokeColor=none;fillColor=none;align=center;verticalAlign=middle;whiteSpace=wrap;rounded=0;" parent="1" vertex="1">
          <mxGeometry x="400" y="1820" width="40" height="20" as="geometry" />
        </mxCell>
        <mxCell id="-IUhRAs3wrBaZXGBPhYS-224" value="1" style="ellipse;shape=doubleEllipse;whiteSpace=wrap;html=1;aspect=fixed;" parent="1" vertex="1">
          <mxGeometry x="460" y="1820" width="80" height="80" as="geometry" />
        </mxCell>
        <mxCell id="-IUhRAs3wrBaZXGBPhYS-225" value="RETURN(;, NULL)" style="text;html=1;strokeColor=none;fillColor=none;align=center;verticalAlign=middle;whiteSpace=wrap;rounded=0;" parent="1" vertex="1">
          <mxGeometry x="580" y="1850" width="40" height="20" as="geometry" />
        </mxCell>
        <mxCell id="-IUhRAs3wrBaZXGBPhYS-226" style="edgeStyle=orthogonalEdgeStyle;rounded=0;orthogonalLoop=1;jettySize=auto;html=1;entryX=0;entryY=0.5;entryDx=0;entryDy=0;" parent="1" source="-IUhRAs3wrBaZXGBPhYS-227" target="-IUhRAs3wrBaZXGBPhYS-230" edge="1">
          <mxGeometry relative="1" as="geometry" />
        </mxCell>
        <mxCell id="-IUhRAs3wrBaZXGBPhYS-227" value="0" style="ellipse;whiteSpace=wrap;html=1;aspect=fixed;" parent="1" vertex="1">
          <mxGeometry x="310" y="1920" width="80" height="80" as="geometry" />
        </mxCell>
        <mxCell id="-IUhRAs3wrBaZXGBPhYS-228" value=":" style="text;html=1;strokeColor=none;fillColor=none;align=center;verticalAlign=middle;whiteSpace=wrap;rounded=0;" parent="1" vertex="1">
          <mxGeometry x="400" y="1920" width="40" height="20" as="geometry" />
        </mxCell>
        <mxCell id="-IUhRAs3wrBaZXGBPhYS-229" style="edgeStyle=orthogonalEdgeStyle;rounded=0;orthogonalLoop=1;jettySize=auto;html=1;entryX=0;entryY=0.5;entryDx=0;entryDy=0;" parent="1" source="-IUhRAs3wrBaZXGBPhYS-230" target="-IUhRAs3wrBaZXGBPhYS-233" edge="1">
          <mxGeometry relative="1" as="geometry" />
        </mxCell>
        <mxCell id="-IUhRAs3wrBaZXGBPhYS-230" value="1" style="ellipse;whiteSpace=wrap;html=1;aspect=fixed;" parent="1" vertex="1">
          <mxGeometry x="460" y="1920" width="80" height="80" as="geometry" />
        </mxCell>
        <mxCell id="-IUhRAs3wrBaZXGBPhYS-231" value="=" style="text;html=1;strokeColor=none;fillColor=none;align=center;verticalAlign=middle;whiteSpace=wrap;rounded=0;" parent="1" vertex="1">
          <mxGeometry x="550" y="1920" width="40" height="20" as="geometry" />
        </mxCell>
        <mxCell id="-IUhRAs3wrBaZXGBPhYS-233" value="2" style="ellipse;shape=doubleEllipse;whiteSpace=wrap;html=1;aspect=fixed;" parent="1" vertex="1">
          <mxGeometry x="610" y="1920" width="80" height="80" as="geometry" />
        </mxCell>
        <mxCell id="-IUhRAs3wrBaZXGBPhYS-234" value="RETURN(:=, NULL)" style="text;html=1;strokeColor=none;fillColor=none;align=center;verticalAlign=middle;whiteSpace=wrap;rounded=0;" parent="1" vertex="1">
          <mxGeometry x="730" y="1950" width="40" height="20" as="geometry" />
        </mxCell>
        <mxCell id="-IUhRAs3wrBaZXGBPhYS-235" style="edgeStyle=orthogonalEdgeStyle;rounded=0;orthogonalLoop=1;jettySize=auto;html=1;entryX=0;entryY=0.5;entryDx=0;entryDy=0;" parent="1" source="-IUhRAs3wrBaZXGBPhYS-236" target="-IUhRAs3wrBaZXGBPhYS-239" edge="1">
          <mxGeometry relative="1" as="geometry" />
        </mxCell>
        <mxCell id="-IUhRAs3wrBaZXGBPhYS-236" value="0" style="ellipse;whiteSpace=wrap;html=1;aspect=fixed;" parent="1" vertex="1">
          <mxGeometry x="310" y="2020" width="80" height="80" as="geometry" />
        </mxCell>
        <mxCell id="-IUhRAs3wrBaZXGBPhYS-237" value="+" style="text;html=1;strokeColor=none;fillColor=none;align=center;verticalAlign=middle;whiteSpace=wrap;rounded=0;" parent="1" vertex="1">
          <mxGeometry x="400" y="2020" width="40" height="20" as="geometry" />
        </mxCell>
        <mxCell id="-IUhRAs3wrBaZXGBPhYS-239" value="1" style="ellipse;shape=doubleEllipse;whiteSpace=wrap;html=1;aspect=fixed;" parent="1" vertex="1">
          <mxGeometry x="460" y="2020" width="80" height="80" as="geometry" />
        </mxCell>
        <mxCell id="-IUhRAs3wrBaZXGBPhYS-240" value="RETURN(+, NULL)" style="text;html=1;strokeColor=none;fillColor=none;align=center;verticalAlign=middle;whiteSpace=wrap;rounded=0;" parent="1" vertex="1">
          <mxGeometry x="580" y="2050" width="40" height="20" as="geometry" />
        </mxCell>
        <mxCell id="-IUhRAs3wrBaZXGBPhYS-241" style="edgeStyle=orthogonalEdgeStyle;rounded=0;orthogonalLoop=1;jettySize=auto;html=1;entryX=0;entryY=0.5;entryDx=0;entryDy=0;" parent="1" source="-IUhRAs3wrBaZXGBPhYS-242" target="-IUhRAs3wrBaZXGBPhYS-245" edge="1">
          <mxGeometry relative="1" as="geometry" />
        </mxCell>
        <mxCell id="-IUhRAs3wrBaZXGBPhYS-242" value="0" style="ellipse;whiteSpace=wrap;html=1;aspect=fixed;" parent="1" vertex="1">
          <mxGeometry x="310" y="2120" width="80" height="80" as="geometry" />
        </mxCell>
        <mxCell id="-IUhRAs3wrBaZXGBPhYS-243" value="-" style="text;html=1;strokeColor=none;fillColor=none;align=center;verticalAlign=middle;whiteSpace=wrap;rounded=0;" parent="1" vertex="1">
          <mxGeometry x="400" y="2120" width="40" height="20" as="geometry" />
        </mxCell>
        <mxCell id="-IUhRAs3wrBaZXGBPhYS-245" value="1" style="ellipse;shape=doubleEllipse;whiteSpace=wrap;html=1;aspect=fixed;" parent="1" vertex="1">
          <mxGeometry x="460" y="2120" width="80" height="80" as="geometry" />
        </mxCell>
        <mxCell id="-IUhRAs3wrBaZXGBPhYS-246" value="RETURN(-, NULL)" style="text;html=1;strokeColor=none;fillColor=none;align=center;verticalAlign=middle;whiteSpace=wrap;rounded=0;" parent="1" vertex="1">
          <mxGeometry x="580" y="2150" width="40" height="20" as="geometry" />
        </mxCell>
        <mxCell id="DFGEx3A6seaGvC7Y-bb5-1" style="edgeStyle=orthogonalEdgeStyle;rounded=0;orthogonalLoop=1;jettySize=auto;html=1;exitX=0.5;exitY=0;exitDx=0;exitDy=0;entryX=0;entryY=0.5;entryDx=0;entryDy=0;" edge="1" parent="1" source="DFGEx3A6seaGvC7Y-bb5-5" target="DFGEx3A6seaGvC7Y-bb5-8">
          <mxGeometry relative="1" as="geometry" />
        </mxCell>
        <mxCell id="DFGEx3A6seaGvC7Y-bb5-2" style="edgeStyle=orthogonalEdgeStyle;rounded=0;orthogonalLoop=1;jettySize=auto;html=1;exitX=1;exitY=0;exitDx=0;exitDy=0;entryX=0;entryY=0.5;entryDx=0;entryDy=0;" edge="1" parent="1" source="DFGEx3A6seaGvC7Y-bb5-5" target="DFGEx3A6seaGvC7Y-bb5-22">
          <mxGeometry relative="1" as="geometry">
            <mxPoint x="520" y="2470" as="targetPoint" />
          </mxGeometry>
        </mxCell>
        <mxCell id="DFGEx3A6seaGvC7Y-bb5-3" style="edgeStyle=orthogonalEdgeStyle;rounded=0;orthogonalLoop=1;jettySize=auto;html=1;exitX=1;exitY=1;exitDx=0;exitDy=0;entryX=0;entryY=0.5;entryDx=0;entryDy=0;" edge="1" parent="1" source="DFGEx3A6seaGvC7Y-bb5-5" target="DFGEx3A6seaGvC7Y-bb5-10">
          <mxGeometry relative="1" as="geometry" />
        </mxCell>
        <mxCell id="DFGEx3A6seaGvC7Y-bb5-4" style="edgeStyle=orthogonalEdgeStyle;rounded=0;orthogonalLoop=1;jettySize=auto;html=1;exitX=0.5;exitY=1;exitDx=0;exitDy=0;entryX=0;entryY=0.5;entryDx=0;entryDy=0;" edge="1" parent="1" source="DFGEx3A6seaGvC7Y-bb5-5" target="DFGEx3A6seaGvC7Y-bb5-13">
          <mxGeometry relative="1" as="geometry" />
        </mxCell>
        <mxCell id="DFGEx3A6seaGvC7Y-bb5-5" value="0" style="ellipse;whiteSpace=wrap;html=1;aspect=fixed;" vertex="1" parent="1">
          <mxGeometry x="310" y="2550" width="80" height="80" as="geometry" />
        </mxCell>
        <mxCell id="DFGEx3A6seaGvC7Y-bb5-6" style="edgeStyle=orthogonalEdgeStyle;rounded=0;orthogonalLoop=1;jettySize=auto;html=1;exitX=1;exitY=1;exitDx=0;exitDy=0;entryX=0;entryY=0.5;entryDx=0;entryDy=0;" edge="1" parent="1" source="DFGEx3A6seaGvC7Y-bb5-8" target="DFGEx3A6seaGvC7Y-bb5-20">
          <mxGeometry relative="1" as="geometry">
            <mxPoint x="690" y="2398" as="targetPoint" />
          </mxGeometry>
        </mxCell>
        <mxCell id="DFGEx3A6seaGvC7Y-bb5-7" style="edgeStyle=orthogonalEdgeStyle;rounded=0;orthogonalLoop=1;jettySize=auto;html=1;entryX=0;entryY=0.5;entryDx=0;entryDy=0;" edge="1" parent="1" source="DFGEx3A6seaGvC7Y-bb5-8" target="DFGEx3A6seaGvC7Y-bb5-21">
          <mxGeometry relative="1" as="geometry" />
        </mxCell>
        <mxCell id="DFGEx3A6seaGvC7Y-bb5-8" value="1" style="ellipse;whiteSpace=wrap;html=1;aspect=fixed;" vertex="1" parent="1">
          <mxGeometry x="520" y="2280" width="80" height="80" as="geometry" />
        </mxCell>
        <mxCell id="DFGEx3A6seaGvC7Y-bb5-9" style="edgeStyle=orthogonalEdgeStyle;rounded=0;orthogonalLoop=1;jettySize=auto;html=1;entryX=0;entryY=0.5;entryDx=0;entryDy=0;" edge="1" parent="1" source="DFGEx3A6seaGvC7Y-bb5-10" target="DFGEx3A6seaGvC7Y-bb5-23">
          <mxGeometry relative="1" as="geometry" />
        </mxCell>
        <mxCell id="DFGEx3A6seaGvC7Y-bb5-10" value="3" style="ellipse;whiteSpace=wrap;html=1;aspect=fixed;" vertex="1" parent="1">
          <mxGeometry x="520" y="2660" width="80" height="80" as="geometry" />
        </mxCell>
        <mxCell id="DFGEx3A6seaGvC7Y-bb5-11" style="edgeStyle=orthogonalEdgeStyle;rounded=0;orthogonalLoop=1;jettySize=auto;html=1;entryX=0;entryY=0.5;entryDx=0;entryDy=0;" edge="1" parent="1" source="DFGEx3A6seaGvC7Y-bb5-13" target="DFGEx3A6seaGvC7Y-bb5-26">
          <mxGeometry relative="1" as="geometry" />
        </mxCell>
        <mxCell id="DFGEx3A6seaGvC7Y-bb5-12" style="edgeStyle=orthogonalEdgeStyle;rounded=0;orthogonalLoop=1;jettySize=auto;html=1;exitX=0.5;exitY=1;exitDx=0;exitDy=0;" edge="1" parent="1" source="DFGEx3A6seaGvC7Y-bb5-13" target="DFGEx3A6seaGvC7Y-bb5-25">
          <mxGeometry relative="1" as="geometry" />
        </mxCell>
        <mxCell id="DFGEx3A6seaGvC7Y-bb5-13" value="4" style="ellipse;whiteSpace=wrap;html=1;aspect=fixed;" vertex="1" parent="1">
          <mxGeometry x="520" y="2830" width="80" height="80" as="geometry" />
        </mxCell>
        <mxCell id="DFGEx3A6seaGvC7Y-bb5-14" value="&amp;lt;" style="text;html=1;strokeColor=none;fillColor=none;align=center;verticalAlign=middle;whiteSpace=wrap;rounded=0;" vertex="1" parent="1">
          <mxGeometry x="390" y="2290" width="60" height="30" as="geometry" />
        </mxCell>
        <mxCell id="DFGEx3A6seaGvC7Y-bb5-15" value="=" style="text;html=1;align=center;verticalAlign=middle;resizable=0;points=[];autosize=1;strokeColor=none;fillColor=none;" vertex="1" parent="1">
          <mxGeometry x="400" y="2520" width="30" height="30" as="geometry" />
        </mxCell>
        <mxCell id="DFGEx3A6seaGvC7Y-bb5-16" value="!" style="text;html=1;align=center;verticalAlign=middle;resizable=0;points=[];autosize=1;strokeColor=none;fillColor=none;" vertex="1" parent="1">
          <mxGeometry x="405" y="2588" width="30" height="30" as="geometry" />
        </mxCell>
        <mxCell id="DFGEx3A6seaGvC7Y-bb5-17" value="&amp;gt;" style="text;html=1;align=center;verticalAlign=middle;resizable=0;points=[];autosize=1;strokeColor=none;fillColor=none;" vertex="1" parent="1">
          <mxGeometry x="405" y="2838" width="30" height="30" as="geometry" />
        </mxCell>
        <mxCell id="DFGEx3A6seaGvC7Y-bb5-18" value="[^=]" style="text;html=1;strokeColor=none;fillColor=none;align=center;verticalAlign=middle;whiteSpace=wrap;rounded=0;" vertex="1" parent="1">
          <mxGeometry x="590" y="2350" width="60" height="30" as="geometry" />
        </mxCell>
        <mxCell id="DFGEx3A6seaGvC7Y-bb5-19" value="=" style="text;html=1;strokeColor=none;fillColor=none;align=center;verticalAlign=middle;whiteSpace=wrap;rounded=0;" vertex="1" parent="1">
          <mxGeometry x="620" y="2250" width="60" height="30" as="geometry" />
        </mxCell>
        <mxCell id="DFGEx3A6seaGvC7Y-bb5-20" value="6" style="ellipse;shape=doubleEllipse;whiteSpace=wrap;html=1;aspect=fixed;" vertex="1" parent="1">
          <mxGeometry x="690" y="2358" width="80" height="80" as="geometry" />
        </mxCell>
        <mxCell id="DFGEx3A6seaGvC7Y-bb5-21" value="5" style="ellipse;shape=doubleEllipse;whiteSpace=wrap;html=1;aspect=fixed;" vertex="1" parent="1">
          <mxGeometry x="690" y="2240" width="80" height="80" as="geometry" />
        </mxCell>
        <mxCell id="DFGEx3A6seaGvC7Y-bb5-22" value="2" style="ellipse;shape=doubleEllipse;whiteSpace=wrap;html=1;aspect=fixed;" vertex="1" parent="1">
          <mxGeometry x="530" y="2450" width="80" height="80" as="geometry" />
        </mxCell>
        <mxCell id="DFGEx3A6seaGvC7Y-bb5-23" value="7" style="ellipse;shape=doubleEllipse;whiteSpace=wrap;html=1;aspect=fixed;" vertex="1" parent="1">
          <mxGeometry x="700" y="2660" width="80" height="80" as="geometry" />
        </mxCell>
        <mxCell id="DFGEx3A6seaGvC7Y-bb5-24" value="&lt;h1&gt;*&lt;/h1&gt;" style="text;html=1;align=center;verticalAlign=middle;resizable=0;points=[];autosize=1;strokeColor=none;fillColor=none;" vertex="1" parent="1">
          <mxGeometry x="770" y="2330" width="30" height="70" as="geometry" />
        </mxCell>
        <mxCell id="DFGEx3A6seaGvC7Y-bb5-25" value="9" style="ellipse;shape=doubleEllipse;whiteSpace=wrap;html=1;aspect=fixed;" vertex="1" parent="1">
          <mxGeometry x="680" y="2910" width="80" height="80" as="geometry" />
        </mxCell>
        <mxCell id="DFGEx3A6seaGvC7Y-bb5-26" value="8" style="ellipse;shape=doubleEllipse;whiteSpace=wrap;html=1;aspect=fixed;" vertex="1" parent="1">
          <mxGeometry x="680" y="2788" width="80" height="80" as="geometry" />
        </mxCell>
        <mxCell id="DFGEx3A6seaGvC7Y-bb5-27" value="=" style="text;html=1;align=center;verticalAlign=middle;resizable=0;points=[];autosize=1;strokeColor=none;fillColor=none;" vertex="1" parent="1">
          <mxGeometry x="615" y="2798" width="30" height="30" as="geometry" />
        </mxCell>
        <mxCell id="DFGEx3A6seaGvC7Y-bb5-28" value="[^=]" style="text;html=1;align=center;verticalAlign=middle;resizable=0;points=[];autosize=1;strokeColor=none;fillColor=none;" vertex="1" parent="1">
          <mxGeometry x="590" y="2918" width="40" height="30" as="geometry" />
        </mxCell>
        <mxCell id="DFGEx3A6seaGvC7Y-bb5-29" value="=" style="text;html=1;align=center;verticalAlign=middle;resizable=0;points=[];autosize=1;strokeColor=none;fillColor=none;" vertex="1" parent="1">
          <mxGeometry x="615" y="2668" width="30" height="30" as="geometry" />
        </mxCell>
        <mxCell id="DFGEx3A6seaGvC7Y-bb5-30" value="*" style="text;strokeColor=none;fillColor=none;html=1;fontSize=24;fontStyle=1;verticalAlign=middle;align=center;" vertex="1" parent="1">
          <mxGeometry x="750" y="2900" width="50" height="40" as="geometry" />
        </mxCell>
        <mxCell id="DFGEx3A6seaGvC7Y-bb5-33" style="edgeStyle=orthogonalEdgeStyle;rounded=0;orthogonalLoop=1;jettySize=auto;html=1;entryX=0;entryY=0.5;entryDx=0;entryDy=0;" edge="1" parent="1" source="DFGEx3A6seaGvC7Y-bb5-31" target="DFGEx3A6seaGvC7Y-bb5-32">
          <mxGeometry relative="1" as="geometry" />
        </mxCell>
        <mxCell id="DFGEx3A6seaGvC7Y-bb5-31" value="0" style="ellipse;whiteSpace=wrap;html=1;aspect=fixed;" vertex="1" parent="1">
          <mxGeometry x="350" y="3110" width="80" height="80" as="geometry" />
        </mxCell>
        <mxCell id="DFGEx3A6seaGvC7Y-bb5-35" style="edgeStyle=orthogonalEdgeStyle;rounded=0;orthogonalLoop=1;jettySize=auto;html=1;entryX=0;entryY=0.5;entryDx=0;entryDy=0;" edge="1" parent="1" source="DFGEx3A6seaGvC7Y-bb5-32" target="DFGEx3A6seaGvC7Y-bb5-34">
          <mxGeometry relative="1" as="geometry" />
        </mxCell>
        <mxCell id="DFGEx3A6seaGvC7Y-bb5-32" value="1" style="ellipse;whiteSpace=wrap;html=1;aspect=fixed;" vertex="1" parent="1">
          <mxGeometry x="520" y="3110" width="80" height="80" as="geometry" />
        </mxCell>
        <mxCell id="DFGEx3A6seaGvC7Y-bb5-34" value="2" style="ellipse;shape=doubleEllipse;whiteSpace=wrap;html=1;aspect=fixed;" vertex="1" parent="1">
          <mxGeometry x="700" y="3110" width="80" height="80" as="geometry" />
        </mxCell>
        <mxCell id="DFGEx3A6seaGvC7Y-bb5-36" value="" style="curved=1;endArrow=classic;html=1;rounded=0;entryX=1;entryY=0;entryDx=0;entryDy=0;exitX=0;exitY=0;exitDx=0;exitDy=0;" edge="1" parent="1" source="DFGEx3A6seaGvC7Y-bb5-32" target="DFGEx3A6seaGvC7Y-bb5-32">
          <mxGeometry width="50" height="50" relative="1" as="geometry">
            <mxPoint x="510" y="3110" as="sourcePoint" />
            <mxPoint x="560" y="3060" as="targetPoint" />
            <Array as="points">
              <mxPoint x="510" y="3080" />
              <mxPoint x="550" y="3080" />
              <mxPoint x="610" y="3080" />
            </Array>
          </mxGeometry>
        </mxCell>
        <mxCell id="DFGEx3A6seaGvC7Y-bb5-37" value="[a-zA-Z_]" style="text;html=1;align=center;verticalAlign=middle;resizable=0;points=[];autosize=1;strokeColor=none;fillColor=none;" vertex="1" parent="1">
          <mxGeometry x="435" y="3120" width="70" height="30" as="geometry" />
        </mxCell>
        <mxCell id="DFGEx3A6seaGvC7Y-bb5-38" value="[0-9a-zA-Z_]" style="text;html=1;align=center;verticalAlign=middle;resizable=0;points=[];autosize=1;strokeColor=none;fillColor=none;" vertex="1" parent="1">
          <mxGeometry x="515" y="3050" width="90" height="30" as="geometry" />
        </mxCell>
        <mxCell id="DFGEx3A6seaGvC7Y-bb5-39" value="[^0-9a-zA-Z_]" style="text;html=1;align=center;verticalAlign=middle;resizable=0;points=[];autosize=1;strokeColor=none;fillColor=none;" vertex="1" parent="1">
          <mxGeometry x="600" y="3120" width="100" height="30" as="geometry" />
        </mxCell>
        <mxCell id="DFGEx3A6seaGvC7Y-bb5-40" value="&lt;h1&gt;*&lt;/h1&gt;" style="text;html=1;align=center;verticalAlign=middle;resizable=0;points=[];autosize=1;strokeColor=none;fillColor=none;" vertex="1" parent="1">
          <mxGeometry x="770" y="3080" width="30" height="70" as="geometry" />
        </mxCell>
        <mxCell id="DFGEx3A6seaGvC7Y-bb5-43" value="" style="edgeStyle=orthogonalEdgeStyle;rounded=0;orthogonalLoop=1;jettySize=auto;html=1;" edge="1" parent="1" source="DFGEx3A6seaGvC7Y-bb5-41" target="DFGEx3A6seaGvC7Y-bb5-42">
          <mxGeometry relative="1" as="geometry" />
        </mxCell>
        <mxCell id="DFGEx3A6seaGvC7Y-bb5-41" value="0" style="ellipse;whiteSpace=wrap;html=1;aspect=fixed;" vertex="1" parent="1">
          <mxGeometry x="350" y="3280" width="80" height="80" as="geometry" />
        </mxCell>
        <mxCell id="DFGEx3A6seaGvC7Y-bb5-45" value="" style="edgeStyle=orthogonalEdgeStyle;rounded=0;orthogonalLoop=1;jettySize=auto;html=1;" edge="1" parent="1" source="DFGEx3A6seaGvC7Y-bb5-42" target="DFGEx3A6seaGvC7Y-bb5-44">
          <mxGeometry relative="1" as="geometry" />
        </mxCell>
        <mxCell id="DFGEx3A6seaGvC7Y-bb5-42" value="1" style="ellipse;whiteSpace=wrap;html=1;aspect=fixed;" vertex="1" parent="1">
          <mxGeometry x="510" y="3280" width="80" height="80" as="geometry" />
        </mxCell>
        <mxCell id="DFGEx3A6seaGvC7Y-bb5-49" style="edgeStyle=orthogonalEdgeStyle;rounded=0;orthogonalLoop=1;jettySize=auto;html=1;entryX=0;entryY=0.5;entryDx=0;entryDy=0;" edge="1" parent="1" source="DFGEx3A6seaGvC7Y-bb5-44" target="DFGEx3A6seaGvC7Y-bb5-46">
          <mxGeometry relative="1" as="geometry" />
        </mxCell>
        <mxCell id="DFGEx3A6seaGvC7Y-bb5-44" value="2" style="ellipse;whiteSpace=wrap;html=1;aspect=fixed;" vertex="1" parent="1">
          <mxGeometry x="670" y="3280" width="80" height="80" as="geometry" />
        </mxCell>
        <mxCell id="DFGEx3A6seaGvC7Y-bb5-46" value="3" style="ellipse;shape=doubleEllipse;whiteSpace=wrap;html=1;aspect=fixed;" vertex="1" parent="1">
          <mxGeometry x="810" y="3280" width="80" height="80" as="geometry" />
        </mxCell>
        <mxCell id="DFGEx3A6seaGvC7Y-bb5-47" value="&#39;" style="text;html=1;align=center;verticalAlign=middle;resizable=0;points=[];autosize=1;strokeColor=none;fillColor=none;" vertex="1" parent="1">
          <mxGeometry x="445" y="3278" width="30" height="30" as="geometry" />
        </mxCell>
        <mxCell id="DFGEx3A6seaGvC7Y-bb5-48" value="&#39;" style="text;html=1;align=center;verticalAlign=middle;resizable=0;points=[];autosize=1;strokeColor=none;fillColor=none;" vertex="1" parent="1">
          <mxGeometry x="765" y="3288" width="30" height="30" as="geometry" />
        </mxCell>
        <mxCell id="DFGEx3A6seaGvC7Y-bb5-50" value="[.|\n]" style="text;html=1;align=center;verticalAlign=middle;resizable=0;points=[];autosize=1;strokeColor=none;fillColor=none;" vertex="1" parent="1">
          <mxGeometry x="605" y="3278" width="50" height="30" as="geometry" />
        </mxCell>
        <mxCell id="DFGEx3A6seaGvC7Y-bb5-52" style="edgeStyle=orthogonalEdgeStyle;rounded=0;orthogonalLoop=1;jettySize=auto;html=1;" edge="1" parent="1" source="DFGEx3A6seaGvC7Y-bb5-51">
          <mxGeometry relative="1" as="geometry">
            <mxPoint x="540" y="3467" as="targetPoint" />
          </mxGeometry>
        </mxCell>
        <mxCell id="DFGEx3A6seaGvC7Y-bb5-51" value="0" style="ellipse;whiteSpace=wrap;html=1;aspect=fixed;" vertex="1" parent="1">
          <mxGeometry x="350" y="3427" width="80" height="80" as="geometry" />
        </mxCell>
        <mxCell id="DFGEx3A6seaGvC7Y-bb5-53" value="1" style="ellipse;shape=doubleEllipse;whiteSpace=wrap;html=1;aspect=fixed;" vertex="1" parent="1">
          <mxGeometry x="540" y="3427" width="80" height="80" as="geometry" />
        </mxCell>
        <mxCell id="DFGEx3A6seaGvC7Y-bb5-54" value="[\s\n\t]" style="text;html=1;align=center;verticalAlign=middle;resizable=0;points=[];autosize=1;strokeColor=none;fillColor=none;" vertex="1" parent="1">
          <mxGeometry x="440" y="3428" width="60" height="30" as="geometry" />
        </mxCell>
        <mxCell id="DFGEx3A6seaGvC7Y-bb5-58" value="" style="edgeStyle=orthogonalEdgeStyle;rounded=0;orthogonalLoop=1;jettySize=auto;html=1;" edge="1" parent="1" source="DFGEx3A6seaGvC7Y-bb5-55" target="DFGEx3A6seaGvC7Y-bb5-57">
          <mxGeometry relative="1" as="geometry" />
        </mxCell>
        <mxCell id="DFGEx3A6seaGvC7Y-bb5-55" value="0" style="ellipse;whiteSpace=wrap;html=1;aspect=fixed;" vertex="1" parent="1">
          <mxGeometry x="355" y="3620" width="80" height="80" as="geometry" />
        </mxCell>
        <mxCell id="DFGEx3A6seaGvC7Y-bb5-57" value="1" style="ellipse;whiteSpace=wrap;html=1;aspect=fixed;" vertex="1" parent="1">
          <mxGeometry x="515" y="3620" width="80" height="80" as="geometry" />
        </mxCell>
        <mxCell id="DFGEx3A6seaGvC7Y-bb5-64" style="edgeStyle=orthogonalEdgeStyle;rounded=0;orthogonalLoop=1;jettySize=auto;html=1;entryX=0;entryY=0.5;entryDx=0;entryDy=0;" edge="1" parent="1" target="DFGEx3A6seaGvC7Y-bb5-63">
          <mxGeometry relative="1" as="geometry">
            <mxPoint x="595" y="3658" as="sourcePoint" />
          </mxGeometry>
        </mxCell>
        <mxCell id="DFGEx3A6seaGvC7Y-bb5-63" value="2" style="ellipse;shape=doubleEllipse;whiteSpace=wrap;html=1;aspect=fixed;" vertex="1" parent="1">
          <mxGeometry x="660" y="3618" width="80" height="80" as="geometry" />
        </mxCell>
        <mxCell id="DFGEx3A6seaGvC7Y-bb5-65" value="{" style="text;html=1;align=center;verticalAlign=middle;resizable=0;points=[];autosize=1;strokeColor=none;fillColor=none;" vertex="1" parent="1">
          <mxGeometry x="445" y="3618" width="30" height="30" as="geometry" />
        </mxCell>
        <mxCell id="DFGEx3A6seaGvC7Y-bb5-66" value="" style="curved=1;endArrow=classic;html=1;rounded=0;entryX=1;entryY=0;entryDx=0;entryDy=0;exitX=0;exitY=0;exitDx=0;exitDy=0;" edge="1" parent="1">
          <mxGeometry width="50" height="50" relative="1" as="geometry">
            <mxPoint x="527" y="3632" as="sourcePoint" />
            <mxPoint x="583" y="3632" as="targetPoint" />
            <Array as="points">
              <mxPoint x="505" y="3590" />
              <mxPoint x="545" y="3590" />
              <mxPoint x="605" y="3590" />
            </Array>
          </mxGeometry>
        </mxCell>
        <mxCell id="DFGEx3A6seaGvC7Y-bb5-67" value="[.|\n]" style="text;html=1;align=center;verticalAlign=middle;resizable=0;points=[];autosize=1;strokeColor=none;fillColor=none;" vertex="1" parent="1">
          <mxGeometry x="530" y="3558" width="50" height="30" as="geometry" />
        </mxCell>
        <mxCell id="DFGEx3A6seaGvC7Y-bb5-68" value="}" style="text;html=1;align=center;verticalAlign=middle;resizable=0;points=[];autosize=1;strokeColor=none;fillColor=none;" vertex="1" parent="1">
          <mxGeometry x="605" y="3620" width="30" height="30" as="geometry" />
        </mxCell>
      </root>
    </mxGraphModel>
  </diagram>
</mxfile>
